<?xml version="1.0" encoding="utf-8"?>
<!-- Generator: Adobe Illustrator 21.1.0, SVG Export Plug-In . SVG Version: 6.00 Build 0)  -->
<svg version="1.1" id="Layer_1" xmlns="http://www.w3.org/2000/svg" xmlns:xlink="http://www.w3.org/1999/xlink" x="0px" y="0px"
	 viewBox="0 0 180 100" style="enable-background:new 0 0 180 100;" xml:space="preserve">
<style type="text/css">
	.st0{fill:#F7A5AA;}
	.st1{fill:none;stroke:#231F20;stroke-miterlimit:10;}
	.st2{fill:#808080;stroke:#231F20;stroke-miterlimit:10;}
	.st3{fill:#FCE3F2;}
	.st4{fill:#D69DC4;}
</style>
<g>
	<g>
		<g id="XMLID_31_">
			<g>
				<path class="st0" d="M18.5,47.1c0.9,5.7,3.4,14.5,10.7,24.1c3.1,4.1,8.4,11,17.5,16.3c27.1,15.8,79.9,12.6,94.4-2.4
					c1.1-1.2,2.5-3.9,5.2-9.3c5.6-11.2,9.4-20.6,11.7-27c-0.2,0-0.5,0-0.7,0c-23.3,0.1-46.5,7.2-70.5,6.9
					C63.8,55.5,40.8,47.7,18.5,47.1z"/>
				<path class="st0" d="M86.8,55.8c24,0.3,47.2-6.8,70.5-6.9v-0.1c-21.3-2.2-44.4-3.7-69.1-4.2c-24.9-0.5-48.2,0.1-69.8,1.4
					l0.1,1.3C40.8,47.7,63.8,55.5,86.8,55.8z"/>
			</g>
			<g>
				<path class="st1" d="M18.5,47.1c0.9,5.7,3.4,14.5,10.7,24.1c3.1,4.1,8.4,11,17.5,16.3c27.1,15.8,79.9,12.6,94.4-2.4
					c1.1-1.2,2.5-3.9,5.2-9.3c5.6-11.2,9.4-20.6,11.7-27c-0.2,0-0.5,0-0.7,0c-23.3,0.1-46.5,7.2-70.5,6.9
					C63.8,55.5,40.8,47.7,18.5,47.1z"/>
				<path class="st1" d="M157.3,48.7c-21.3-2.2-44.4-3.7-69.1-4.2c-24.9-0.5-48.2,0.1-69.8,1.4c-0.2,0-0.4,0-0.6,0"/>
			</g>
		</g>
	</g>
	<path class="st2" d="M80.5,52.2c-1.5-3.5-4.6-6.8-6.5-10C66.3,29.3,58.4,16.1,46.8,6.5c-1.5-1.2-3.1-2.4-5-2.5
		c-1.9-0.1-4,1.3-3.9,3.2c0.1,1.2,0.9,2.1,1.7,3c10.9,12.3,20.1,26,27.4,40.8"/>
	<path class="st3" d="M39.2,78.5C29.6,72.3,21,59.2,20.3,48c0.2,3.3,14.8,16,17.6,18c5.9,4,21.1,5.6,26.9,9.7
		c4.1,2.9,4.7,4.8,3.7,11.2C66.4,100,44.3,81.8,39.2,78.5z"/>
	<path class="st4" d="M137.4,86.4c6.8-4.6,16.3-27.9,16.9-36.2c-0.2,2.4-8,16.4-9.4,18.8c-1.6,2.9-6.6,11.2-8.4,11.8
		c-3.2,1.1-9.1,7.4-13.3,10.7C119,94.8,133.8,88.8,137.4,86.4z"/>
</g>
</svg>
