<?xml version="1.0" encoding="utf-8"?>
<!-- Generator: Adobe Illustrator 21.1.0, SVG Export Plug-In . SVG Version: 6.00 Build 0)  -->
<svg version="1.1" id="Layer_1" xmlns="http://www.w3.org/2000/svg" xmlns:xlink="http://www.w3.org/1999/xlink" x="0px" y="0px"
	 viewBox="0 0 180 100" style="enable-background:new 0 0 180 100;" xml:space="preserve">
<style type="text/css">
	.st0{fill:#996600;stroke:#000000;stroke-width:0.5;stroke-miterlimit:10;}
	.st1{fill:#330066;stroke:#000000;stroke-width:0.5;stroke-miterlimit:10;}
	.st2{fill:#336600;}
	.st3{fill:none;stroke:#000000;stroke-width:0.5;stroke-miterlimit:10;}
	.st4{fill:#C1272D;stroke:#000000;stroke-miterlimit:10;}
	.st5{fill:#009245;}
	.st6{fill:#34093D;}
	.st7{fill:#C69C6D;}
	.st8{fill:#6600CC;stroke:#000000;stroke-width:0.5;stroke-miterlimit:10;}
	.st9{fill:#FBB03B;}
	.st10{fill:#FFFF00;stroke:#000000;stroke-linecap:round;stroke-miterlimit:10;}
	.st11{fill:#F9F573;}
</style>
<path class="st0" d="M123.8,37.5c2.9,0.3,5.5,2.4,6.2,5.1c0.7,2.7-0.5,5.8-2.9,7.3c-1.4,0.9-3,1.3-4.7,1.7c-7.6,1.8-15.2,3.3-23,3.5
	c-5.8,0.2-11.6-0.3-17.4-0.9c-6.2-0.6-12.5-1.1-18.7-1.7c-4.8-0.4-9.6-0.9-14.2-2.1c-2.2-0.6-4.6-1.4-5.7-3.3
	c-1.1-1.6-1-3.7-0.9-5.6c0.2-2.8,0.2-4.9,1.7-6.6c2.8-3.1,8.1-2.3,8.6-2.2"/>
<path class="st1" d="M84.7,66.3c3.6,0.1,4.8-0.2,16.8-1.6c8-0.9,14.5-1.6,18.6-2c-0.7,1.6-1.6,3.7-3,6.2
	c-1.9,3.3-5.6,10.8-12.2,14.7c-7,4.1-15.4,4.6-23.4,4.4c-7.8-0.2-16-1.2-22.3-5.7c-5.5-3.9-9.7-10.5-12.4-16.9c-0.4-1-0.8-2-1.1-2.9
	c7.4-0.2,13.4,0.2,17.6,0.7C73.8,64.4,76.1,66.2,84.7,66.3z"/>
<g id="XMLID_9_">
	<g>
		<path class="st2" d="M125.3,50.9c0.7,0,1.3,0.6,1.9,0.9c1.5,1,3,2,4,3.5c1.3,1.9,1.6,4.6,0,6.3c-1.1,1.2-2.9,1.6-4.5,1.4
			c-1.6-0.1-3.1-0.8-4.6-1.5c1.5,1.9,0.1,4.9-2.2,6c-2.3,1.1-4.9,0.8-7.5,0.6c-0.8-0.1-1.6-0.2-2.1-0.7c-1.1-0.9-0.8-2.9-2-3.7
			c0.2,2.7-1.7,5.5-4.4,6.4c-2.3,0.8-4.8,0.3-7.2-0.3c-1.2-0.3-2.4-0.5-3.4-1.3c-0.5-0.4-0.9-1-1.1-1.5c0.2-0.5,0.2-1,0.1-1.6
			c-0.3,0.5-0.3,1-0.1,1.6c-0.4,1.2-1.5,2.3-2.8,2.8c-1.8,0.7-3.8,0.6-5.8,0.4c-1.9-0.1-3.8-0.4-5.4-1.4c-1.6-1-2.6-3-1.7-4.6
			c-0.8,1.9-3.2,2.7-5.3,3.2c-3.4,0.9-6.9,1.9-10.4,1.6c-0.5,0-1.1-0.1-1.5-0.5c-0.6-0.5-0.6-1.4-0.5-2.2c0.1-1.3,0.3-2.6,0.4-4
			c-1.8,2-4.5,3.3-7.2,3.4c-0.5,0-1.1,0-1.6-0.2c-1.7-0.6-2-2.7-1.9-4.5c0.2-0.2,0.3-0.5,0-0.7c0,0.2,0,0.5,0,0.7
			c-0.1,0.2-0.3,0.3-0.5,0.5c-1.8,1.2-3.6,2.3-5.4,3.5c-1,0.6-2,1.3-3.2,1.6c-1.2,0.3-2.5,0.1-3.3-0.7c-1-1-1-2.5-0.8-3.8
			c0.3-2.8,1-5.7,2.6-8.1c1.2-1.8,2.8-3.3,4.8-4.2c0.8-0.3,1.9-0.8,2.7-0.7c1.1,0.2,2.3,0.9,3.5,1.2c4.6,1.2,9.5,1.6,14.2,2.1
			c6.2,0.6,12.5,1.1,18.7,1.7c5.8,0.5,11.6,1,17.4,0.9c7.8-0.2,15.5-1.7,23-3.5C123.3,51.5,124.4,50.9,125.3,50.9z"/>
	</g>
	<g>
		<path class="st3" d="M92.3,67.2c0.2-0.5,0.2-1,0.1-1.6C92.2,66.1,92.2,66.6,92.3,67.2z"/>
		<path class="st3" d="M48.6,61.3c-0.1,1.8,0.2,3.9,1.9,4.5c0.5,0.2,1.1,0.2,1.6,0.2c2.8-0.1,5.5-1.4,7.2-3.4
			c-0.1,1.3-0.2,2.6-0.4,4c-0.1,0.8-0.1,1.7,0.5,2.2c0.4,0.3,1,0.4,1.5,0.5c3.5,0.2,7-0.7,10.4-1.6c2.1-0.6,4.4-1.3,5.3-3.2
			C75.8,66,76.8,68,78.4,69c1.6,1,3.5,1.2,5.4,1.4c2,0.2,4,0.3,5.8-0.4c1.3-0.5,2.4-1.6,2.8-2.8"/>
		<path class="st3" d="M48.6,61.3c0.2-0.2,0.3-0.5,0-0.7C48.6,60.8,48.6,61.1,48.6,61.3z"/>
		<path class="st3" d="M92.3,67.2c0.2,0.6,0.6,1.2,1.1,1.5c0.9,0.7,2.2,1,3.4,1.3c2.4,0.5,4.9,1,7.2,0.3c2.7-0.9,4.6-3.7,4.4-6.4
			c1.2,0.8,0.9,2.8,2,3.7c0.6,0.5,1.4,0.6,2.1,0.7c2.5,0.3,5.2,0.5,7.5-0.6c2.3-1.1,3.7-4.1,2.2-6c1.5,0.7,3,1.4,4.6,1.5
			c1.6,0.1,3.4-0.3,4.5-1.4c1.6-1.7,1.3-4.4,0-6.3c-1-1.5-2.5-2.5-4-3.5c-0.6-0.4-1.2-0.9-1.9-0.9c-0.9,0-2,0.5-2.9,0.7
			c-7.6,1.8-15.3,3.3-23,3.5c-5.8,0.2-11.6-0.3-17.4-0.9c-6.2-0.6-12.4-1.1-18.7-1.7c-4.8-0.4-9.6-0.9-14.2-2.1
			c-1.1-0.3-2.3-1-3.5-1.2c-0.9-0.1-2,0.3-2.7,0.7c-2,0.9-3.6,2.4-4.8,4.2c-1.6,2.4-2.3,5.3-2.6,8.1c-0.2,1.3-0.2,2.9,0.8,3.8
			c0.8,0.8,2.2,1,3.3,0.7c1.2-0.3,2.2-0.9,3.2-1.6c1.8-1.2,3.6-2.3,5.4-3.5c0.2-0.1,0.3-0.3,0.5-0.5"/>
	</g>
</g>
<path class="st4" d="M96.7,46.2c-8.3,0.5-16.8-0.6-24.6-3.4c-1.1,2.6-1.8,6.4-1.8,9.2c1.5-2.7,3.5-5.3,5.7-7.5"/>
<path class="st4" d="M95.5,46.5c-0.8,2.6-1.9,5.1-3.4,7.3c-0.1-2.5-0.6-4.9-1.3-7.3"/>
<path class="st5" d="M82.6,68.9c2.6,0.8,6-0.6,6-0.6c0,0-1.1,0-2.8-0.4c-0.7-0.2-1.6-0.4-2.7-0.9c-3.1-1.3-4.8-3-4.9-2.9
	c-0.1,0.1,0.3,0.6,1,2.3C79.7,67.5,82.3,68.8,82.6,68.9z"/>
<path class="st5" d="M102,69c2.7-0.4,5.2-3.1,5.2-3.2c0,0-1,0.5-2.7,0.9c-0.7,0.2-1.6,0.3-2.8,0.4c-3.4,0.2-5.6-0.6-5.7-0.4
	C96,66.8,96.6,67,98,68.3C98.8,69.1,101.7,69.1,102,69z"/>
<path class="st5" d="M101.3,60c1.5-0.3,2.9-1.7,2.9-1.7c0,0-0.6,0.3-1.5,0.5c-0.4,0.1-0.9,0.2-1.5,0.3c-1.8,0.2-3-0.1-3.1-0.1
	c0,0.1,0.3,0.2,1,0.8C99.5,60.2,101.1,60.1,101.3,60z"/>
<path class="st5" d="M53.5,64.7c2.1-0.4,4.1-2.4,4-2.5c0,0-0.8,0.4-2,0.7c-0.6,0.1-1.2,0.3-2.1,0.4c-2.6,0.3-4.2-0.2-4.3-0.1
	c0,0.1,0.4,0.2,1.4,1.1C51.1,64.8,53.3,64.7,53.5,64.7z"/>
<path class="st5" d="M68.3,67.5c3.8-0.8,7.4-4.3,7.4-4.4c0,0-1.4,0.7-3.7,1.4c-1,0.3-2.2,0.6-3.8,0.8c-4.6,0.7-7.5,0.1-7.7,0.3
	c-0.1,0.2,0.7,0.4,2.4,1.7C63.9,68,67.9,67.6,68.3,67.5z"/>
<path class="st6" d="M99.6,84.4c6.9-2,11.5-6.4,12.1-11.5c-0.2,1.5-10.8,4.2-12.8,4.9c-4.2,1.3-9.1,1.9-13.3,3.3
	c-2.9,1-6,2.2-2.3,4.3C87.6,87.8,96,85.5,99.6,84.4z"/>
<path class="st7" d="M53.4,33.5c-3.5-0.2-7,1.1-9.5,3.6c4,2.5,8.8,3.4,13.5,3.8c4.7,0.3,9.4,0.1,14.1,0.5c2.5,0.2,4.9,0.6,7.3,0.9
	c1.7,0.2,3.3,0.5,5,1c1.1,0.3,2.2,0.7,3.3,1c1.2,0.3,2.5,0.3,3.8,0.4c8.5,0.4,17,0.8,25.5,0.2c2.9-0.2,5.9-0.6,8.3-2.2
	c0.3-0.4-0.3-1-0.7-0.8"/>
<path class="st8" d="M85.5,41.7c12.8,0.8,25.7,0.9,38.5,0.3c0-12.9-4.6-26.9-16.1-33.5C100.8,4.5,92.1,3.9,83.8,4
	c-8,0.1-16.5,0.9-23.1,5.2c-6.6,4.3-11.5,12-14.2,19c5.5,2.8,9,7.3,15,9.5C69.1,40.6,77.5,41.3,85.5,41.7z"/>
<g>
	<path class="st9" d="M65.7,10.3c-0.1,0.3,0.2,0.6,0.6,0.7c0.4,0.1,0.8,0,1.3,0c0-0.3,0-0.5,0-0.8c-0.5-0.3-1.2-0.2-1.6,0.2"/>
	<path class="st9" d="M94.5,14.7c-0.1,0.3,0.2,0.6,0.6,0.7c0.4,0.1,0.8,0,1.3,0c0-0.3,0-0.5,0-0.8c-0.5-0.3-1.2-0.2-1.6,0.2"/>
	<path class="st9" d="M79.1,17.6c-0.1,0.3,0.2,0.6,0.6,0.7c0.4,0.1,0.8,0,1.3,0c0-0.3,0-0.5,0-0.8c-0.5-0.3-1.2-0.2-1.6,0.2"/>
	<path class="st9" d="M94.5,19c-0.1,0.3,0.2,0.6,0.6,0.7s0.8,0,1.3,0c0-0.3,0-0.5,0-0.8c-0.5-0.3-1.2-0.2-1.6,0.2"/>
	<path class="st9" d="M107.9,17.6c-0.1,0.3,0.2,0.6,0.6,0.7c0.4,0.1,0.8,0,1.3,0c0-0.3,0-0.5,0-0.8c-0.5-0.3-1.2-0.2-1.6,0.2"/>
	<path class="st9" d="M88.7,8.8c-0.1,0.3,0.2,0.6,0.6,0.7c0.4,0.1,0.8,0,1.3,0c0-0.3,0-0.5,0-0.8c-0.5-0.3-1.2-0.2-1.6,0.2"/>
	<path class="st9" d="M100.2,13.2c-0.1,0.3,0.2,0.6,0.6,0.7c0.4,0.1,0.8,0,1.3,0c0-0.3,0-0.5,0-0.8c-0.5-0.3-1.2-0.2-1.6,0.2"/>
	<path class="st9" d="M69.6,14.7c-0.1,0.3,0.2,0.6,0.6,0.7c0.4,0.1,0.8,0,1.3,0c0-0.3,0-0.5,0-0.8c-0.5-0.3-1.2-0.2-1.6,0.2"/>
	<path class="st9" d="M81.1,13.2c-0.1,0.3,0.2,0.6,0.6,0.7c0.4,0.1,0.8,0,1.3,0c0-0.3,0-0.5,0-0.8c-0.5-0.3-1.2-0.2-1.6,0.2"/>
</g>
<path class="st10" d="M80.4,28.8c0.1,2.1-1,3.9-2.4,4.8c-1.3,0.9-2.9,1.1-4.4,1.2c-1.7,0.1-3.5,0.2-5-1c-0.8-0.6-1.5-1.5-2.1-2.5
	c-1.4-2-2.9-4-4.1-6.3c-2.1-3.9-3.4-8.6-4.6-13.1c3.1,3.3,7.2,5.5,10.7,8c2,1.5,4,2.9,6,4.4C75.3,25,80.4,28,80.4,28.8z"/>
<path class="st10" d="M92.5,28.8c-0.6,1.8-0.2,4.2,0.7,5.8c0.9,1.7,2.2,2.8,3.5,3.8c1.5,1.2,3,2.3,4.6,2.3c0.9,0,1.7-0.4,2.5-0.9
	c1.8-0.9,3.6-1.8,5.3-3.1c2.9-2.2,5.4-5.5,7.6-8.9c-3.6,1-7.9,0.4-11.6,0.5c-2.1,0.1-4.3,0.1-6.4,0.2C98,28.6,92.8,28.1,92.5,28.8z"
	/>
<path class="st11" d="M78.1,29.9c0.1,1.3-0.7,2.5-1.5,3.1c-0.9,0.6-1.8,0.7-2.8,0.8c-1.1,0.1-2.2,0.1-3.2-0.6
	c-0.5-0.4-0.9-1-1.4-1.6c-0.9-1.3-1.8-2.6-2.6-4c-1.3-2.5-2.2-5.5-2.9-8.4c2,2.1,4.6,3.5,6.8,5.1c1.3,0.9,2.5,1.9,3.8,2.8
	C74.9,27.4,78.1,29.3,78.1,29.9z"/>
<path class="st11" d="M93.7,31.2c-0.4,1.2-0.1,2.7,0.5,3.8c0.6,1.1,1.4,1.8,2.3,2.5c0.9,0.8,2,1.5,3,1.5c0.6,0,1.1-0.3,1.7-0.6
	c1.2-0.6,2.3-1.2,3.4-2c1.9-1.4,3.5-3.6,5-5.8c-2.3,0.7-5.1,0.2-7.5,0.3c-1.4,0-2.8,0.1-4.2,0.1C97.3,31.1,93.8,30.7,93.7,31.2z"/>
</svg>
