<?xml version="1.0" encoding="utf-8"?>
<!-- Generator: Adobe Illustrator 21.1.0, SVG Export Plug-In . SVG Version: 6.00 Build 0)  -->
<svg version="1.1" id="Layer_1" xmlns="http://www.w3.org/2000/svg" xmlns:xlink="http://www.w3.org/1999/xlink" x="0px" y="0px"
	 viewBox="0 0 500 300" style="enable-background:new 0 0 500 300;" xml:space="preserve">
<style type="text/css">
	.st0{fill:#8F6C56;}
	.st1{fill:#FCD8D1;}
	.st2{fill:#49361F;}
	.st3{fill:none;stroke:#000000;stroke-miterlimit:10;}
	.st4{fill:#ED1E79;}
	.st5{fill:#FFFFFF;}
	.st6{fill:#FF7BAC;}
	.st7{fill:#C69C6D;}
</style>
<g>
	<g>
		<g id="XMLID_2_">
			<g>
				<path class="st0" d="M353.1,189c0,0-25.9,28.9-114.1,31.9c-84.2,2.9-122.6-33-126-36.3l0.2-24.2c4.3,4.2,42.9,38.9,125.8,36.1
					c7.3-0.3,14.2-0.7,20.6-1.2c71.7-6.4,93.5-30.7,93.5-30.7l0.8,0l-0.3,24.3L353.1,189z"/>
				<path class="st0" d="M347.3,157.1c-10.2,6.9-20.8,11.8-31.7,15.4l-0.2-0.6c2.7-0.9,2.7-5.7,2.7-5.7s10.7-21.3,12.2-24.3
					c1.5-3,1.5-3,6.1-3c4.6,0,4.6,15.2,9.1,15.2s7.6-22.8,7.6-22.8l1.3,0l-0.3,21.3h0l-1,0C351.9,155.3,349.2,156.2,347.3,157.1z"/>
				<path class="st1" d="M146.2,163.2c0,0-1.5,2.6-3.2,3.6c-1.1,0.6-2.2,0.6-3.1-1.1c-0.6-1.1-1-2.8-1.3-5.5
					c-1.5-13.7-3-16.7-3-16.7s-1.5-12.2-10.6-3c-1.5,1.5-2.8,2.1-4,1.9c-1.5-0.2-4.4-2.4-6.9-19.2h-0.6l0.1-11
					c0,0,17.5-40.2,122.5-41.7c105-1.5,118.7,45.5,118.7,45.5l-0.2,15.3l-1.3,0c0,0-3,22.8-7.6,22.8s-4.6-15.2-9.1-15.2
					c-4.6,0-4.6,0-6.1,3c-1.5,3-12.2,24.3-12.2,24.3s0,4.8-2.7,5.7c-1.6,0.5-4-0.3-8-4.2c-10.6-10.6-10.6-13.7-10.6-13.7
					s-7.6-9.1-16.7,4.6C271.8,171,266,181,265,182.7c-0.1,0.2-0.1,0.3-0.1,0.3s-2.5,4.4-6,4.7c-1.7,0.1-3.7-0.8-5.7-4h0
					c-0.1-0.2-0.3-0.5-0.4-0.7c-6.1-10.6-12.2-21.3-12.2-21.3s0-2.6-1.9-4.5c-4.2-4.1-14-0.1-17.8,1.4c-10.9,4.5-10.4,8.5-18.3,10.6
					c-1.4,0.4-11.7,3.1-21.3-3c-7.1-4.5-9.8-11.2-10.7-13.7c0,0-4.6-9.1-13.7,0S146.2,163.2,146.2,163.2z"/>
				<path class="st0" d="M113.3,148.4l0.2-25.4h0.6c2.6,16.8,5.4,18.9,6.9,19.2c1.1,0.2,2.5-0.4,4-1.9c9.1-9.1,10.6,3,10.6,3
					s1.5,3.1,3,16.7c0.3,2.7,0.8,4.4,1.3,5.5l-0.3,0.2C130.2,161.2,120.8,155.8,113.3,148.4z"/>
				<path class="st0" d="M234.5,259c-108,0-121.7-39.6-121.7-39.6l0.2-22.7c2.7,2.7,41.1,39.3,126.1,36.4
					c88.2-3.1,114.1-31.9,114.1-31.9h0.3l-0.3,21.3C353.1,222.5,342.5,259,234.5,259z"/>
				<path class="st2" d="M353.6,189l-0.2,12.2h-0.3c0,0-25.9,28.9-114.1,31.9c-85,2.9-123.4-33.7-126.1-36.4l0.1-12.1
					c3.4,3.3,41.9,39.2,126,36.3c88.2-3,114.1-31.9,114.1-31.9L353.6,189z"/>
				<path class="st2" d="M353.9,164.7l-0.8,0c0,0-21.8,24.3-93.5,30.7l-0.7-7.7c3.4-0.3,6-4.7,6-4.7s0.1-0.1,0.1-0.3
					c17-2.1,34.1-4.7,50.6-10.2c10.9-3.6,21.5-8.5,31.7-15.4c1.8-0.9,4.6-1.8,5.8-4.6l1,0h0L353.9,164.7z"/>
				<path class="st2" d="M140,165.6c0.9,1.7,2,1.7,3.1,1.1l-0.3,0.6c33.8,15.5,72.3,19.1,110.3,16.4l0.1-0.1h0c2,3.2,4,4.1,5.7,4
					l0.7,7.7c-6.5,0.6-13.3,1-20.6,1.2c-82.9,2.8-121.5-31.9-125.8-36.1l0.1-12.1c7.5,7.4,17,12.8,26.3,17.4L140,165.6z"/>
				<path class="st0" d="M315.6,172.5c-16.5,5.5-33.6,8-50.6,10.2c1-1.7,6.8-11.6,15.1-24.1c9.1-13.7,16.7-4.6,16.7-4.6
					s0,3.1,10.6,13.7c3.9,3.9,6.4,4.8,8,4.2L315.6,172.5z"/>
				<path class="st0" d="M253.1,183.7c-38,2.8-76.5-0.9-110.3-16.4l0.3-0.6c1.7-1,3.2-3.6,3.2-3.6s1.5-1.5,10.7-10.7s13.7,0,13.7,0
					c0.9,2.5,3.6,9.2,10.7,13.7c9.6,6.1,19.9,3.4,21.3,3c7.9-2.2,7.3-6.2,18.3-10.6c3.9-1.6,13.6-5.6,17.8-1.4
					c1.9,1.9,1.9,4.5,1.9,4.5s6.1,10.7,12.2,21.3C252.9,183.2,253,183.4,253.1,183.7L253.1,183.7z"/>
			</g>
			<g>
				<path class="st3" d="M265,182.7L265,182.7c17-2.1,34.1-4.7,50.6-10.2c10.9-3.6,21.5-8.5,31.7-15.4c1.8-0.9,4.6-1.8,5.8-4.6"/>
				<path class="st3" d="M142.7,167.3C142.8,167.3,142.8,167.3,142.7,167.3c33.8,15.5,72.4,19.2,110.3,16.4"/>
				<path class="st3" d="M112.8,147.9c0.2,0.2,0.3,0.3,0.5,0.5c7.5,7.4,17,12.8,26.3,17.4"/>
				<path class="st3" d="M112.8,160.1c0,0,0.1,0.1,0.4,0.4c4.3,4.2,42.9,38.9,125.8,36.1c7.3-0.3,14.2-0.7,20.6-1.2
					c71.7-6.4,93.5-30.7,93.5-30.7"/>
				<path class="st3" d="M112.8,184.5c0,0,0.1,0.1,0.2,0.2c3.4,3.3,41.9,39.2,126,36.3c88.2-3,114.1-31.9,114.1-31.9"/>
				<path class="st3" d="M112.8,196.6c0,0,0.1,0.1,0.2,0.2c2.7,2.7,41.1,39.3,126.1,36.4c88.2-3.1,114.1-31.9,114.1-31.9"/>
				<path class="st3" d="M354.4,131.2l0.2-15.3c0,0-13.7-47.1-118.7-45.5c-105,1.5-122.5,41.7-122.5,41.7l-0.1,11l-0.2,25.4
					l-0.1,12.1l-0.2,24.2l-0.1,12.1l-0.2,22.7c0,0,13.7,39.6,121.7,39.6s118.7-36.5,118.7-36.5l0.3-21.3l0.2-12.2l0.3-24.3l0.2-12.2
					L354.4,131.2z"/>
				<path class="st3" d="M353.1,131.2c0,0-3,22.8-7.6,22.8s-4.6-15.2-9.1-15.2c-4.6,0-4.6,0-6.1,3c-1.5,3-12.2,24.3-12.2,24.3
					s0,4.8-2.7,5.7c-1.6,0.5-4-0.3-8-4.2c-10.6-10.6-10.6-13.7-10.6-13.7s-7.6-9.1-16.7,4.6C271.8,171,266,181,265,182.7
					c-0.1,0.2-0.1,0.3-0.1,0.3s-2.5,4.4-6,4.7c-1.7,0.1-3.7-0.8-5.7-4h0c-0.1-0.2-0.3-0.5-0.4-0.7c-6.1-10.6-12.2-21.3-12.2-21.3
					s0-2.6-1.9-4.5c-4.2-4.1-14-0.1-17.8,1.4c-10.9,4.5-10.4,8.5-18.3,10.6c-1.4,0.4-11.7,3.1-21.3-3c-7.1-4.5-9.8-11.2-10.7-13.7
					c0,0-4.6-9.1-13.7,0s-10.7,10.7-10.7,10.7s-1.5,2.6-3.2,3.6c-1.1,0.6-2.2,0.6-3.1-1.1c-0.6-1.1-1-2.8-1.3-5.5
					c-1.5-13.7-3-16.7-3-16.7s-1.5-12.2-10.6-3c-1.5,1.5-2.8,2.1-4,1.9c-1.5-0.2-4.4-2.4-6.9-19.2"/>
			</g>
		</g>
	</g>
</g>
<g>
	<g id="XMLID_1_">
		<g>
			<path class="st4" d="M263.1,88.2c0.3,0.3,0.5,0.6,0.8,0.8c-1.6,1.6-3.8,2.6-6.2,2.7c-0.3-0.5-0.6-1-1-1.5c1.2,0.3,3-0.2,3.9-0.5
				C261.5,89.3,262.3,88.8,263.1,88.2z"/>
			<path class="st5" d="M247.8,82.3c0,5.2,4.2,9.4,9.4,9.4c0.1,0,0.2,0,0.4,0c2.7,4.4,4,9.1,1.9,13.3c-0.3,0.5-0.5,1-0.9,1.5
				c-9.4,13.4-17.5-1.3-17.5-1.3l-0.6-0.1c0.3-0.5,0.5-0.9,0.6-1.2c4.5-8.8-0.5-19.5-1.3-21.5l-0.5-0.1l0.8-7.8c0.9,0.6,4.2,3,8,6.3
				C247.9,81.2,247.8,81.7,247.8,82.3z"/>
			<path class="st5" d="M263.8,89c2,2.2,3.7,4.3,5,6.2c4,6.2-2.8,10.8-8.9,9.9l-0.5-0.1c2.1-4.2,0.8-8.9-1.9-13.3
				C260,91.6,262.2,90.6,263.8,89z"/>
			<path class="st5" d="M219.5,106.4c-1.5-3.7-1.7-8.5,0.1-12.1c2.3-4.4,3.5-5.2,6-9.2c2.3-3.8,3.1-9.5,2.2-14.6l1.5-0.3
				C231,79.3,233,89,233,89l0.5,0c-0.2,2.5-0.3,4.2-0.3,4.2c5.5-1.1,5.2-2.9,5.2-2.9l0.8-8.1l0.5,0.1c0.8,2,5.8,12.7,1.3,21.5
				c-0.2,0.3-0.4,0.7-0.6,1.2c-1.5,2.7-4.7,7.6-10.1,8.2c-0.6,0.1-3.4,0-6.4-1.3C222.1,111,220.5,109,219.5,106.4z"/>
			<path class="st6" d="M265.2,85c-0.4,1.2-1.2,2.3-2.1,3.1c-0.5-0.5-1-1-1.5-1.5C262.7,86.3,265,85.5,265.2,85z"/>
			<path class="st4" d="M266.6,82.3c0,2.6-1.1,5-2.8,6.7c-0.2-0.3-0.5-0.5-0.8-0.8c1-0.8,1.7-1.9,2.1-3.1c-0.2,0.5-2.5,1.2-3.6,1.6
				c-3.7-3.7-7.8-7.4-11.5-10.5c1.7-2,4.3-3.3,7.1-3.3c0.8,0,1.5,0.1,2.2,0.3c0.1,0,0.3,0.1,0.4,0.1c0.6,0.2,1.2,0.4,1.7,0.7
				C264.6,75.5,266.6,78.6,266.6,82.3z"/>
			<path class="st5" d="M241.1,68.8c0,0,4,3,9,7.3c-1.1,1.3-1.9,2.8-2.2,4.6c-3.7-3.3-7-5.7-8-6.3l0.6-5.6L241.1,68.8z"/>
			<path class="st7" d="M269.3,63.5v2.7l-7.8,7.8c-0.6-0.3-1.1-0.5-1.7-0.7l0.1-0.4l5.4-9.4H269.3z"/>
			<path class="st7" d="M231.7,55.4C234.4,60.8,233,89,233,89s-2-9.7-3.8-18.7c-1.6-7.8-3-15.1-2.9-14.9
				C226.3,55.4,229,50,231.7,55.4z"/>
			<path class="st4" d="M255.8,89.7c0.2,0.2,0.5,0.4,0.8,0.5c0.3,0.5,0.7,1,1,1.5c-0.1,0-0.2,0-0.4,0c-5.2,0-9.4-4.2-9.4-9.4
				c0-0.6,0-1.1,0.1-1.6c2.6,2.3,5.4,5.1,7.6,8.1C255.5,89,255.5,89.3,255.8,89.7z"/>
			<path class="st7" d="M233.5,89c0.8-9.3,2.5-30.2,2.7-29.9c0,0,4.1-4.4,5.1,1.5l-0.8,8.1l-0.6,5.6l-0.8,7.8l-0.8,8.1
				c0,0,0.3,1.8-5.2,2.9C233.2,93.2,233.3,91.6,233.5,89z"/>
			<path class="st5" d="M209.5,93.7c-0.4,0.5-0.7,1-0.9,1.4l-0.4-0.1c0,0-10.8,0-2.7-10.8c17.5-8.1,16.1-21.5,16.1-21.5
				s0.4,0.4,2.3,1.7l-0.2,0.3C223.6,64.8,227,85.6,209.5,93.7z"/>
			<path class="st6" d="M255.6,88.8c0.4,0.5,0.7,0.9,1,1.4c-0.3-0.1-0.6-0.2-0.8-0.5C255.5,89.3,255.5,89,255.6,88.8z"/>
			<path class="st6" d="M256.6,90.2c-0.3-0.5-0.7-0.9-1-1.4c0.2-0.4,0.8-0.6,1.4-0.9c1.3-0.5,2.8-0.6,4.1-1.1c0.1,0,0.3-0.1,0.5-0.2
				c0.5,0.5,1,1,1.5,1.5c-0.7,0.7-1.6,1.2-2.5,1.5C259.6,89.9,257.8,90.5,256.6,90.2z"/>
			<path class="st4" d="M250.1,76.1c3.6,3.1,7.8,6.8,11.5,10.5c-0.2,0.1-0.4,0.1-0.5,0.2c-1.3,0.5-2.8,0.6-4.1,1.1
				c-0.6,0.2-1.2,0.5-1.4,0.9c-2.3-3-5.1-5.8-7.6-8.1C248.2,78.9,249,77.4,250.1,76.1z"/>
			<path class="st5" d="M209.5,93.7c17.5-8.1,14.1-28.9,14.1-28.9l0.2-0.3c0.6,0.4,1.4,1,2.4,1.7c0.7,1.4,1.1,2.9,1.4,4.5
				c1,5.1,0.1,10.8-2.2,14.6c-2.5,4-3.7,4.8-6,9.2c-1.9,3.6-1.6,8.4-0.1,12.1c-1.4-0.2-16.2-2.3-10.9-11.3
				C208.8,94.6,209.2,94.2,209.5,93.7z"/>
		</g>
		<g>
			<path class="st3" d="M223.6,64.8c0,0,3.4,20.8-14.1,28.9c-0.4,0.5-0.7,1-0.9,1.4c-5.3,9.1,9.5,11.2,10.9,11.3c0.1,0,0.1,0,0.1,0"
				/>
			<path class="st3" d="M239.8,82.3c0.8,2,5.8,12.7,1.3,21.5c-0.2,0.3-0.4,0.7-0.6,1.2c-1.5,2.7-4.7,7.6-10.1,8.2
				c-0.6,0.1-3.4,0-6.4-1.3c-1.9-0.8-3.5-2.9-4.5-5.4c-1.5-3.7-1.7-8.5,0.1-12.1c2.3-4.4,3.5-5.2,6-9.2c2.3-3.8,3.1-9.5,2.2-14.6
				c-0.3-1.6-0.8-3.1-1.4-4.5c-1-0.7-1.8-1.2-2.4-1.7c-1.9-1.3-2.3-1.7-2.3-1.7s1.3,13.4-16.1,21.5C197.4,95,208.2,95,208.2,95"/>
			<path class="st3" d="M248,80.7c-3.7-3.3-7-5.7-8-6.3"/>
			<path class="st3" d="M241.1,105.1c0,0,8.1,14.8,17.5,1.3c0.3-0.5,0.6-1,0.9-1.5c2.1-4.2,0.8-8.9-1.9-13.3"/>
			<path class="st3" d="M250.1,76.1c-5-4.3-9-7.3-9-7.3"/>
			<path class="st3" d="M259.9,105.1c6.1,0.9,12.8-3.8,8.9-9.9c-1.2-1.9-3-4-5-6.2"/>
			<path class="st3" d="M261.5,73.9c3,1.5,5.1,4.7,5.1,8.3c0,2.6-1.1,5-2.8,6.7c-1.6,1.6-3.8,2.6-6.2,2.7c-0.1,0-0.2,0-0.4,0
				c-5.2,0-9.4-4.2-9.4-9.4c0-0.6,0-1.1,0.1-1.6c0.3-1.7,1-3.3,2.2-4.6c1.7-2,4.3-3.3,7.1-3.3c0.8,0,1.5,0.1,2.2,0.3
				c0.1,0,0.3,0.1,0.4,0.1C260.4,73.4,261,73.6,261.5,73.9z"/>
			<polyline class="st3" points="259.9,72.9 265.3,63.5 269.3,63.5 269.3,66.1 261.5,73.9 261.3,74.2 			"/>
			<path class="st3" d="M229.2,70.3c-1.6-7.8-3-15.1-2.9-14.9c0,0,2.7-5.4,5.4,0S233,89,233,89S231,79.3,229.2,70.3z"/>
			<path class="st3" d="M239.2,82.2l-0.8,8.1c0,0,0.3,1.8-5.2,2.9c0,0,0.1-1.7,0.3-4.2c0.8-9.3,2.5-30.2,2.7-29.9
				c0,0,4.1-4.4,5.1,1.5l-0.8,8.1l-0.6,5.6L239.2,82.2z"/>
		</g>
	</g>
</g>
</svg>
