<?xml version="1.0" encoding="utf-8"?>
<!-- Generator: Adobe Illustrator 21.1.0, SVG Export Plug-In . SVG Version: 6.00 Build 0)  -->
<svg version="1.1" id="Layer_1" xmlns="http://www.w3.org/2000/svg" xmlns:xlink="http://www.w3.org/1999/xlink" x="0px" y="0px"
	 viewBox="0 0 180 100" style="enable-background:new 0 0 180 100;" xml:space="preserve">
<style type="text/css">
	.st0{fill:#FF3300;}
	.st1{fill:#99CC66;}
	.st2{fill:none;stroke:#000000;stroke-miterlimit:10;}
	.st3{fill:#FFFFFF;stroke:#000000;stroke-miterlimit:10;}
	.st4{stroke:#000000;stroke-miterlimit:10;}
	.st5{fill:#FFFFFF;stroke:#000000;stroke-linecap:round;stroke-miterlimit:10;}
</style>
<g>
	<g id="XMLID_2_">
		<g>
			<path class="st0" d="M91.9,35.6c0.9-5.7-0.6-8.3,1.2-10.1c0.3-0.3,0.7-0.5,1.1-0.7c-0.7,1.5-1,3.2-0.8,4.9
				c2.2-3.2,5.5-5.7,9.2-6.9c-0.2,0.2-0.3,0.4-0.2,0.7c0.1,0.5,0.5,0.8,0.9,1.1c1.9,1.4,4.2,2.4,6.5,3c-1.4-2.2-2-3.5-1.7-3.7
				c0.4-0.3,2.6,1.4,6.6,5.3l0,0.1c-0.1,0-0.2-0.1-0.4-0.2c-0.4-0.2-0.8-0.4-1-0.4c-0.3-0.1-0.5-0.2-0.8-0.3
				c0.8,4.1-0.8,8.3-2.5,12.2c-0.2,0.5-0.5,1-0.7,1.6c-1.1,2.6-2.2,5.2-3.4,7.8c-1.7,4-3.4,7.9-5.1,11.9c-1.2,2.8-1.9,4.2-2.3,4.8
				c-4.1,7.2-10.4,11-13.4,12.7c-2.2,1.3-5,2.9-9.1,3.9c-5.1,1.2-9.4,0.9-12,0.4c2.6-1.2,5.2-2.3,7.8-3.5c4.3-1.9,7.4-3.8,10.3-6.9
				c3.2-3.3,4.6-6.7,5.7-9.2c0,0,3.5-8.5,3.2-18.8c0-0.6-0.1-2.3,0.1-4.6C91.3,38.1,91.6,37.7,91.9,35.6z"/>
			<path class="st1" d="M97.5,20.7c-3.9,2.1-7.6,4.7-10.8,7.9c2.1-3.7,5-6.9,8.5-9.3c1.9-1.3,4.1-2.4,6.3-2.3c2,0.1,3.8,1,5.6,2
				c2.2,1.2,4.5,2.4,6.2,4.2c1.8,1.8,3,4.3,2.6,6.8c-0.5-0.2-1-0.4-1.4-0.6l0-0.1c-4-3.9-6.2-5.6-6.6-5.3c-0.3,0.2,0.3,1.5,1.7,3.7
				c-2.3-0.5-4.6-1.5-6.5-3c-0.4-0.3-0.8-0.6-0.9-1.1c0-0.2,0.1-0.5,0.2-0.7c0.2-0.1,0.4-0.1,0.6-0.2c-0.2-0.1-0.4,0-0.6,0.2
				c-3.7,1.2-7,3.7-9.2,6.9c-0.1-1.7,0.2-3.4,0.8-4.9C94.9,23.2,96,21.7,97.5,20.7z"/>
		</g>
		<g>
			<path class="st2" d="M102.5,22.9c-3.7,1.2-7,3.7-9.2,6.9c-0.1-1.7,0.2-3.4,0.8-4.9c0.7-1.7,1.9-3.1,3.4-4.2
				c-3.9,2.1-7.6,4.7-10.8,7.9c2.1-3.7,5-6.9,8.5-9.3c1.9-1.3,4.1-2.4,6.3-2.3c2,0.1,3.8,1,5.6,2c2.2,1.2,4.5,2.4,6.2,4.2
				c1.8,1.8,3,4.3,2.6,6.8c-0.5-0.2-1-0.4-1.4-0.6c-0.1,0-0.2-0.1-0.4-0.2c-0.4-0.2-0.8-0.4-1-0.4c-0.3-0.1-0.5-0.2-0.8-0.3
				c0.8,4.1-0.8,8.3-2.5,12.2c-0.2,0.5-0.5,1-0.7,1.6c-1.1,2.6-2.2,5.2-3.4,7.8c-1.7,4-3.4,7.9-5.1,11.9c-1.2,2.8-1.9,4.2-2.3,4.8
				c-4.1,7.2-10.4,11-13.4,12.7c-2.2,1.3-5,2.9-9.1,3.9c-5.1,1.2-9.4,0.9-12,0.4c2.6-1.2,5.2-2.3,7.8-3.5c4.3-1.9,7.4-3.8,10.3-6.9
				c3.2-3.3,4.6-6.7,5.7-9.2c0,0,3.5-8.5,3.2-18.8c0-0.6-0.1-2.3,0.1-4.6c0.2-2.5,0.5-3,0.9-5.1c0.9-5.7-0.6-8.3,1.2-10.1
				c0.3-0.3,0.7-0.5,1.1-0.7c0.3-0.1,0.5-0.2,0.8-0.3"/>
			<path class="st2" d="M102.5,22.9c0.1-0.2,0.4-0.3,0.6-0.2C102.9,22.7,102.7,22.8,102.5,22.9z"/>
			<path class="st2" d="M114.6,29.2c-4-3.9-6.2-5.6-6.6-5.3c-0.3,0.2,0.3,1.5,1.7,3.7c-2.3-0.5-4.6-1.5-6.5-3
				c-0.4-0.3-0.8-0.6-0.9-1.1c0-0.2,0.1-0.5,0.2-0.7"/>
		</g>
	</g>
	<ellipse transform="matrix(0.2049 -0.9788 0.9788 0.2049 46.8802 126.4809)" class="st3" cx="101.3" cy="34.4" rx="4" ry="2.2"/>
	<ellipse transform="matrix(0.2049 -0.9788 0.9788 0.2049 49.4472 133.7673)" class="st3" cx="107.1" cy="36.4" rx="3.4" ry="1.7"/>
	<ellipse transform="matrix(0.2049 -0.9788 0.9788 0.2049 46.1553 127.4593)" class="st4" cx="101.5" cy="35.3" rx="2" ry="1.2"/>
	<ellipse transform="matrix(0.2049 -0.9788 0.9788 0.2049 48.7422 134.4193)" class="st4" cx="107.1" cy="37.2" rx="1.6" ry="1"/>
</g>
<path class="st5" d="M100.4,48.4c0.8,0.3,2.2-1.4,2.3-1.6c1.7-2.2,1.4-4.9,1.3-5.5c-1.1-0.3-2.2-0.6-3.2-0.9
	C99.4,46.4,99.7,48.2,100.4,48.4z"/>
</svg>
