<svg id="Layer_1" data-name="Layer 1" xmlns="http://www.w3.org/2000/svg" viewBox="0 0 103.51 69.47">
  <defs>
    <style>
      .cls-1 {
        fill: #3d2a1a;
      }

      .cls-2 {
        fill: #3d1c1a;
      }

      .cls-3 {
        fill: none;
      }

      .cls-3, .cls-6 {
        stroke: #000;
        stroke-miterlimit: 10;
      }

      .cls-4 {
        fill: #fff;
      }

      .cls-5, .cls-6 {
        fill: #fbb03b;
      }
    </style>
  </defs>
  <title>chocolate</title>
  <g>
    <g>
      <path class="cls-1" d="M140.46,49.56a1.87,1.87,0,0,1-.11.32c-.76,1.69-1.9,2.43-9.86,5.91-5.68,2.5-5.91,1.93-11.17,3.94A204,204,0,0,1,99,65.89c-2.2.59-5.11,2.2-7.33,1.74l-.14,0C90.44,67.27,90,66,88.95,65.35c-11.11-6.56-30.26-23.82-40.25-32C45.77,31,42.4,26.18,38.6,20c.33-1.69,1.49-2.9,4.48-3.93A181.69,181.69,0,0,1,78.22,7.83c5.15-.68,10.59-1.09,15.35,1a23.7,23.7,0,0,1,6.9,4.62C115.86,28,142.36,43,140.46,49.56Z" transform="translate(-37.99 -4.67)"/>
      <path class="cls-2" d="M140.46,49.56c.19,1.66.55,3.64.55,4.92,0,.65-1,2-1.31,2.63-.45,1-2.31,1.54-3.29,2-13.07,5.78-24.29,10.32-38.32,13-2.71.53-4.32,2.29-6.83,1.12h0c.19-1.11,0-4.82.32-5.53l0-.12.14,0c2.23.46,5.14-1.15,7.33-1.74a204,204,0,0,0,20.27-6.14c5.26-2,5.49-1.45,11.17-3.94,8-3.49,9.1-4.23,9.86-5.91A1.87,1.87,0,0,0,140.46,49.56Z" transform="translate(-37.99 -4.67)"/>
      <path class="cls-2" d="M91.22,73.24a.53.53,0,0,1-.1.3c-.7-.91-35.44-26-38.18-29.57-3.61-4.69-13.15-11.21-13.8-17.09-.34-3-.87-5.2-.53-6.92,3.8,6.22,7.17,11,10.09,13.4,10,8.16,29.14,25.43,40.25,32,1,.61,1.49,1.92,2.62,2.24l0,.12C91.23,68.42,91.41,72.13,91.22,73.24Z" transform="translate(-37.99 -4.67)"/>
    </g>
    <g>
      <path class="cls-3" d="M91.05,73.55h0s.06,0,0,0c-.7-.91-35.44-26-38.18-29.57-3.61-4.69-13.15-11.21-13.8-17.09-.34-3-.87-5.2-.53-6.92s1.49-2.9,4.48-3.93A181.69,181.69,0,0,1,78.22,7.83c5.15-.68,10.59-1.09,15.35,1a23.7,23.7,0,0,1,6.9,4.62C115.86,28,142.36,43,140.46,49.56a1.87,1.87,0,0,1-.11.32c-.76,1.69-1.9,2.43-9.86,5.91-5.68,2.5-5.91,1.93-11.17,3.94A204,204,0,0,1,99,65.89c-2.2.59-5.11,2.2-7.33,1.74l-.14,0C90.44,67.27,90,66,88.95,65.35c-11.11-6.56-30.26-23.82-40.25-32C45.77,31,42.4,26.18,38.6,20l-.18-.29" transform="translate(-37.99 -4.67)"/>
      <path class="cls-3" d="M91.53,67.72c-.3.7-.12,4.42-.32,5.53a.53.53,0,0,1-.1.3h0" transform="translate(-37.99 -4.67)"/>
      <path class="cls-3" d="M91.26,73.25c2.5,1.16,4.11-.6,6.83-1.12,14-2.71,25.24-7.26,38.32-13,1-.43,2.83-1,3.29-2,.28-.58,1.31-2,1.31-2.63,0-1.28-.35-3.27-.55-4.92a13.1,13.1,0,0,1-.11-1.65" transform="translate(-37.99 -4.67)"/>
    </g>
  </g>
  <g>
    <g>
      <path class="cls-1" d="M52.25,27.64a2.09,2.09,0,0,1-.5-.17l-.36-.19c-2.78-1.6-4.67-4-7.2-6-.9-.72-2.68-1.84-2.73-3a2.11,2.11,0,0,1,1.19-1.45,42.17,42.17,0,0,1,8.53-2.45,6.75,6.75,0,0,1,3.78.11,7.64,7.64,0,0,1,1.74,1.14c2.78,2.19,5.95,4.77,7.84,7.84,0,0,0,0,0,0-1.92.37-3.64,1.81-5.43,2.61-1.64.73-3.52.62-5.23,1.18A3.48,3.48,0,0,1,52.25,27.64Z" transform="translate(-37.99 -4.67)"/>
      <path class="cls-2" d="M52.25,27.64a3.48,3.48,0,0,0,1.63-.32c1.71-.56,3.58-.45,5.23-1.18,1.79-.81,3.52-2.24,5.43-2.61,0,.35,0,.71,0,1.05a1.18,1.18,0,0,1-.06.5,1.11,1.11,0,0,1-.58.52A45.4,45.4,0,0,1,54,29.27a3.21,3.21,0,0,1-2,0,4,4,0,0,1-.35-1.77l0-.07A2.09,2.09,0,0,0,52.25,27.64Z" transform="translate(-37.99 -4.67)"/>
      <path class="cls-2" d="M52.07,29.31a1.49,1.49,0,0,0,.31.56,20,20,0,0,1-7.68-5.69A12.4,12.4,0,0,0,41.14,21a13,13,0,0,1,.32-2.68c.05,1.14,1.84,2.26,2.73,3,2.53,2,4.42,4.37,7.2,6l.36.19,0,.07A4,4,0,0,0,52.07,29.31Z" transform="translate(-37.99 -4.67)"/>
    </g>
    <g>
      <path class="cls-3" d="M64.54,23.52c-1.92.37-3.64,1.81-5.43,2.61-1.64.73-3.52.62-5.23,1.18a3.48,3.48,0,0,1-1.63.32,2.09,2.09,0,0,1-.5-.17l-.36-.19c-2.78-1.6-4.67-4-7.2-6-.9-.72-2.68-1.84-2.73-3a1.13,1.13,0,0,1,.08-.47" transform="translate(-37.99 -4.67)"/>
      <path class="cls-3" d="M51.72,27.54a4,4,0,0,0,.35,1.77,1.49,1.49,0,0,0,.31.56,20,20,0,0,1-7.68-5.69A12.4,12.4,0,0,0,41.14,21a13,13,0,0,1,.32-2.68,2.11,2.11,0,0,1,1.19-1.45,42.17,42.17,0,0,1,8.53-2.45,6.75,6.75,0,0,1,3.78.11,7.64,7.64,0,0,1,1.74,1.14c2.78,2.19,5.95,4.77,7.84,7.84" transform="translate(-37.99 -4.67)"/>
      <path class="cls-3" d="M52,29.3h0a3.21,3.21,0,0,0,2,0,45.4,45.4,0,0,0,9.89-3.69,1.11,1.11,0,0,0,.58-.52,1.18,1.18,0,0,0,.06-.5c0-.34,0-.7,0-1.05,0,0,0,0,0,0v-.3" transform="translate(-37.99 -4.67)"/>
    </g>
  </g>
  <g>
    <g>
      <path class="cls-1" d="M72.46,37.18c-1.64.73-3.52.62-5.23,1.18a3.48,3.48,0,0,1-1.63.32,2.09,2.09,0,0,1-.5-.17l-.36-.19c-2.78-1.6-4.67-4-7.2-6-.9-.72-2.68-1.84-2.73-3A2.11,2.11,0,0,1,56,27.92a42.17,42.17,0,0,1,8.53-2.45,6.75,6.75,0,0,1,3.78.11A7.64,7.64,0,0,1,70,26.72c2.78,2.19,5.95,4.77,7.84,7.84,0,0,0,0,0,0C76,34.94,74.25,36.37,72.46,37.18Z" transform="translate(-37.99 -4.67)"/>
      <path class="cls-2" d="M77.86,36.12a1.11,1.11,0,0,1-.58.52,45.4,45.4,0,0,1-9.89,3.69,3.21,3.21,0,0,1-2,0,4,4,0,0,1-.35-1.77l0-.07a2.09,2.09,0,0,0,.5.17,3.48,3.48,0,0,0,1.63-.32c1.71-.56,3.58-.45,5.23-1.18,1.79-.81,3.52-2.24,5.43-2.61,0,.35,0,.71,0,1.05A1.18,1.18,0,0,1,77.86,36.12Z" transform="translate(-37.99 -4.67)"/>
      <path class="cls-2" d="M65.42,40.35a1.49,1.49,0,0,0,.31.56A20,20,0,0,1,58,35.22,12.4,12.4,0,0,0,54.49,32a13,13,0,0,1,.32-2.68c.05,1.14,1.84,2.26,2.73,3,2.53,2,4.42,4.37,7.2,6l.36.19,0,.07A4,4,0,0,0,65.42,40.35Z" transform="translate(-37.99 -4.67)"/>
    </g>
    <g>
      <path class="cls-3" d="M77.89,34.57c-1.92.37-3.64,1.81-5.43,2.61-1.64.73-3.52.62-5.23,1.18a3.48,3.48,0,0,1-1.63.32,2.09,2.09,0,0,1-.5-.17l-.36-.19c-2.78-1.6-4.67-4-7.2-6-.9-.72-2.68-1.84-2.73-3a1.13,1.13,0,0,1,.08-.47" transform="translate(-37.99 -4.67)"/>
      <path class="cls-3" d="M65.07,38.58a4,4,0,0,0,.35,1.77,1.49,1.49,0,0,0,.31.56A20,20,0,0,1,58,35.22,12.4,12.4,0,0,0,54.49,32a13,13,0,0,1,.32-2.68A2.11,2.11,0,0,1,56,27.92a42.17,42.17,0,0,1,8.53-2.45,6.75,6.75,0,0,1,3.78.11A7.64,7.64,0,0,1,70,26.72c2.78,2.19,5.95,4.77,7.84,7.84" transform="translate(-37.99 -4.67)"/>
      <path class="cls-3" d="M65.39,40.34h0a3.21,3.21,0,0,0,2,0,45.4,45.4,0,0,0,9.89-3.69,1.11,1.11,0,0,0,.58-.52,1.18,1.18,0,0,0,.06-.5c0-.34,0-.7,0-1.05,0,0,0,0,0,0v-.3" transform="translate(-37.99 -4.67)"/>
    </g>
  </g>
  <g>
    <g>
      <path class="cls-1" d="M77.41,49.4c-2.78-1.6-4.67-4-7.2-6-.9-.72-2.68-1.84-2.73-3A2.11,2.11,0,0,1,68.67,39a42.17,42.17,0,0,1,8.53-2.45,6.75,6.75,0,0,1,3.78.11,7.64,7.64,0,0,1,1.74,1.14c2.78,2.19,5.95,4.77,7.84,7.84,0,0,0,0,0,0-1.92.37-3.64,1.81-5.43,2.61-1.64.73-3.52.62-5.23,1.18a3.48,3.48,0,0,1-1.63.32,2.09,2.09,0,0,1-.5-.17Z" transform="translate(-37.99 -4.67)"/>
      <path class="cls-2" d="M90.53,47.2a1.11,1.11,0,0,1-.58.52,45.4,45.4,0,0,1-9.89,3.69,3.21,3.21,0,0,1-2,0,4,4,0,0,1-.35-1.77l0-.07a2.09,2.09,0,0,0,.5.17,3.48,3.48,0,0,0,1.63-.32c1.71-.56,3.58-.45,5.23-1.18,1.79-.81,3.52-2.24,5.43-2.61,0,.35,0,.71,0,1.05A1.18,1.18,0,0,1,90.53,47.2Z" transform="translate(-37.99 -4.67)"/>
      <path class="cls-2" d="M77.41,49.4l.36.19,0,.07a4,4,0,0,0,.35,1.77,1.49,1.49,0,0,0,.31.56,20,20,0,0,1-7.68-5.69,12.4,12.4,0,0,0-3.55-3.17,13,13,0,0,1,.32-2.68c.05,1.14,1.84,2.26,2.73,3C72.74,45.45,74.63,47.81,77.41,49.4Z" transform="translate(-37.99 -4.67)"/>
    </g>
    <g>
      <path class="cls-3" d="M90.56,45.65c-1.92.37-3.64,1.81-5.43,2.61-1.64.73-3.52.62-5.23,1.18a3.48,3.48,0,0,1-1.63.32,2.09,2.09,0,0,1-.5-.17l-.36-.19c-2.78-1.6-4.67-4-7.2-6-.9-.72-2.68-1.84-2.73-3a1.13,1.13,0,0,1,.08-.47" transform="translate(-37.99 -4.67)"/>
      <path class="cls-3" d="M77.74,49.66a4,4,0,0,0,.35,1.77,1.49,1.49,0,0,0,.31.56,20,20,0,0,1-7.68-5.69,12.4,12.4,0,0,0-3.55-3.17,13,13,0,0,1,.32-2.68A2.11,2.11,0,0,1,68.67,39a42.17,42.17,0,0,1,8.53-2.45,6.75,6.75,0,0,1,3.78.11,7.64,7.64,0,0,1,1.74,1.14c2.78,2.19,5.95,4.77,7.84,7.84" transform="translate(-37.99 -4.67)"/>
      <path class="cls-3" d="M78.06,51.43h0a3.21,3.21,0,0,0,2,0,45.4,45.4,0,0,0,9.89-3.69,1.11,1.11,0,0,0,.58-.52,1.18,1.18,0,0,0,.06-.5c0-.34,0-.7,0-1.05,0,0,0,0,0,0v-.3" transform="translate(-37.99 -4.67)"/>
    </g>
  </g>
  <g>
    <g>
      <path class="cls-1" d="M103.7,56.81h0Z" transform="translate(-37.99 -4.67)"/>
      <path class="cls-1" d="M98.27,59.44c-1.64.73-3.52.62-5.23,1.18a3.45,3.45,0,0,1-1.63.32,1.76,1.76,0,0,1-.49-.18l-.36-.19c-2.79-1.59-4.67-3.95-7.2-6-.9-.71-2.68-1.83-2.73-3a2.09,2.09,0,0,1,1.19-1.45,42.23,42.23,0,0,1,8.54-2.45,6.73,6.73,0,0,1,3.77.11A7.67,7.67,0,0,1,95.86,49c2.78,2.19,5.95,4.77,7.84,7.84h0C101.78,57.2,100.06,58.63,98.27,59.44Z" transform="translate(-37.99 -4.67)"/>
      <path class="cls-2" d="M103.68,58.38a1.11,1.11,0,0,1-.59.52,45,45,0,0,1-9.89,3.68,3.15,3.15,0,0,1-2,0,3.93,3.93,0,0,1-.35-1.77l0-.08a1.76,1.76,0,0,0,.49.18A3.45,3.45,0,0,0,93,60.62c1.71-.56,3.58-.45,5.23-1.18,1.79-.81,3.51-2.24,5.43-2.61,0,.35,0,.7,0,1.05A1.21,1.21,0,0,1,103.68,58.38Z" transform="translate(-37.99 -4.67)"/>
      <path class="cls-2" d="M91.55,63.17a20,20,0,0,1-7.68-5.69A12.25,12.25,0,0,0,80.3,54.3a12.53,12.53,0,0,1,.33-2.68c.06,1.14,1.84,2.26,2.73,3,2.53,2,4.41,4.38,7.2,6l.36.19,0,.08a3.93,3.93,0,0,0,.35,1.77A1.45,1.45,0,0,0,91.55,63.17Z" transform="translate(-37.99 -4.67)"/>
    </g>
    <g>
      <path class="cls-3" d="M90.89,60.84a3.93,3.93,0,0,0,.35,1.77,1.45,1.45,0,0,0,.31.56,20,20,0,0,1-7.68-5.69A12.25,12.25,0,0,0,80.3,54.3a12.53,12.53,0,0,1,.33-2.68,2.09,2.09,0,0,1,1.19-1.45,42.23,42.23,0,0,1,8.54-2.45,6.73,6.73,0,0,1,3.77.11A7.67,7.67,0,0,1,95.86,49c2.78,2.19,5.95,4.77,7.84,7.84h0c-1.92.37-3.64,1.81-5.43,2.61-1.64.73-3.52.62-5.23,1.18a3.45,3.45,0,0,1-1.63.32,1.76,1.76,0,0,1-.49-.18l-.36-.19c-2.79-1.59-4.67-3.95-7.2-6-.9-.71-2.68-1.83-2.73-3a1,1,0,0,1,.08-.47" transform="translate(-37.99 -4.67)"/>
      <path class="cls-3" d="M91.2,62.6h0a3.15,3.15,0,0,0,2,0,45,45,0,0,0,9.89-3.68,1.11,1.11,0,0,0,.59-.52,1.21,1.21,0,0,0,0-.5c0-.35,0-.7,0-1.05h0v-.3" transform="translate(-37.99 -4.67)"/>
    </g>
  </g>
  <g>
    <g>
      <path class="cls-1" d="M90.22,15.73c-1.45.65-3.11.55-4.63,1a3.08,3.08,0,0,1-1.44.28,1.85,1.85,0,0,1-.44-.15l-.32-.17c-2.47-1.42-4.14-3.5-6.38-5.29-.8-.63-2.37-1.63-2.42-2.64a1.86,1.86,0,0,1,1.06-1.28A37.36,37.36,0,0,1,83.2,5.36a6,6,0,0,1,3.35.1,6.92,6.92,0,0,1,1.54,1c2.46,1.95,5.27,4.23,6.94,7h0C93.33,13.75,91.81,15,90.22,15.73Z" transform="translate(-37.99 -4.67)"/>
      <path class="cls-2" d="M95,14.79a1,1,0,0,1-.52.46,39.92,39.92,0,0,1-8.76,3.26,2.77,2.77,0,0,1-1.75,0A3.48,3.48,0,0,1,83.67,17l0-.06a1.85,1.85,0,0,0,.44.15,3.08,3.08,0,0,0,1.44-.28c1.51-.49,3.17-.4,4.63-1s3.12-2,4.82-2.32c0,.31,0,.62,0,.93A1.18,1.18,0,0,1,95,14.79Z" transform="translate(-37.99 -4.67)"/>
      <path class="cls-2" d="M84,18.54a1.28,1.28,0,0,0,.28.5,17.74,17.74,0,0,1-6.81-5,10.91,10.91,0,0,0-3.15-2.81,11.45,11.45,0,0,1,.28-2.37c0,1,1.62,2,2.42,2.64,2.24,1.79,3.91,3.88,6.38,5.29l.32.17,0,.06A3.48,3.48,0,0,0,84,18.54Z" transform="translate(-37.99 -4.67)"/>
    </g>
    <g>
      <path class="cls-3" d="M95,13.42c-1.7.33-3.22,1.6-4.82,2.32s-3.11.55-4.63,1a3.08,3.08,0,0,1-1.44.28,1.85,1.85,0,0,1-.44-.15l-.32-.17c-2.47-1.42-4.14-3.5-6.38-5.29-.8-.63-2.37-1.63-2.42-2.64a1,1,0,0,1,.07-.42" transform="translate(-37.99 -4.67)"/>
      <path class="cls-3" d="M83.67,17A3.48,3.48,0,0,0,84,18.54a1.28,1.28,0,0,0,.28.5,17.74,17.74,0,0,1-6.81-5,10.91,10.91,0,0,0-3.15-2.81,11.45,11.45,0,0,1,.28-2.37,1.86,1.86,0,0,1,1.06-1.28A37.36,37.36,0,0,1,83.2,5.36a6,6,0,0,1,3.35.1,6.92,6.92,0,0,1,1.54,1c2.46,1.95,5.27,4.23,6.94,7" transform="translate(-37.99 -4.67)"/>
      <path class="cls-3" d="M84,18.53h0a2.77,2.77,0,0,0,1.75,0,39.92,39.92,0,0,0,8.76-3.26,1,1,0,0,0,.52-.46,1.18,1.18,0,0,0,0-.44c0-.31,0-.62,0-.93h0v-.27" transform="translate(-37.99 -4.67)"/>
    </g>
  </g>
  <g>
    <g>
      <path class="cls-1" d="M76,21.2c-1.64.73-3.52.62-5.23,1.18a3.48,3.48,0,0,1-1.63.32,2.09,2.09,0,0,1-.5-.17l-.36-.19c-2.78-1.6-4.67-4-7.2-6-.9-.72-2.68-1.84-2.73-3a2.11,2.11,0,0,1,1.19-1.45,42.17,42.17,0,0,1,8.53-2.45,6.75,6.75,0,0,1,3.78.11,7.64,7.64,0,0,1,1.74,1.14c2.78,2.19,5.95,4.77,7.84,7.84,0,0,0,0,0,0C79.53,19,77.81,20.39,76,21.2Z" transform="translate(-37.99 -4.67)"/>
      <path class="cls-2" d="M81.42,20.13a1.11,1.11,0,0,1-.58.52,45.4,45.4,0,0,1-9.89,3.69,3.21,3.21,0,0,1-2,0,4,4,0,0,1-.35-1.77l0-.07a2.09,2.09,0,0,0,.5.17,3.48,3.48,0,0,0,1.63-.32c1.71-.56,3.58-.45,5.23-1.18,1.79-.81,3.52-2.24,5.43-2.61,0,.35,0,.71,0,1.05A1.18,1.18,0,0,1,81.42,20.13Z" transform="translate(-37.99 -4.67)"/>
      <path class="cls-2" d="M69.28,24.93a20,20,0,0,1-7.68-5.69A12.4,12.4,0,0,0,58,16.06a13,13,0,0,1,.32-2.68c.05,1.14,1.84,2.26,2.73,3,2.53,2,4.42,4.37,7.2,6l.36.19,0,.07A4,4,0,0,0,69,24.37,1.49,1.49,0,0,0,69.28,24.93Z" transform="translate(-37.99 -4.67)"/>
    </g>
    <g>
      <path class="cls-3" d="M81.44,18.58C79.53,19,77.81,20.39,76,21.2c-1.64.73-3.52.62-5.23,1.18a3.48,3.48,0,0,1-1.63.32,2.09,2.09,0,0,1-.5-.17l-.36-.19c-2.78-1.6-4.67-4-7.2-6-.9-.72-2.68-1.84-2.73-3a1.13,1.13,0,0,1,.08-.47" transform="translate(-37.99 -4.67)"/>
      <path class="cls-3" d="M68.62,22.6A4,4,0,0,0,69,24.37a1.49,1.49,0,0,0,.31.56,20,20,0,0,1-7.68-5.69A12.4,12.4,0,0,0,58,16.06a13,13,0,0,1,.32-2.68,2.11,2.11,0,0,1,1.19-1.45,42.17,42.17,0,0,1,8.53-2.45,6.75,6.75,0,0,1,3.78.11,7.64,7.64,0,0,1,1.74,1.14c2.78,2.19,5.95,4.77,7.84,7.84" transform="translate(-37.99 -4.67)"/>
      <path class="cls-3" d="M68.94,24.36h0a3.21,3.21,0,0,0,2,0,45.4,45.4,0,0,0,9.89-3.69,1.11,1.11,0,0,0,.58-.52,1.18,1.18,0,0,0,.06-.5c0-.34,0-.7,0-1.05,0,0,0,0,0,0v-.3" transform="translate(-37.99 -4.67)"/>
    </g>
  </g>
  <g>
    <g>
      <path class="cls-1" d="M103.69,26.47c-1.56.73-3.34.62-5,1.18A3.12,3.12,0,0,1,97.2,28a1.7,1.7,0,0,1-.47-.17l-.34-.19c-2.64-1.61-4.44-4-6.84-6-.85-.73-2.53-1.85-2.59-3h0a2.1,2.1,0,0,1,1.13-1.46,38.41,38.41,0,0,1,8.08-2.44,6,6,0,0,1,3.58.13,7,7,0,0,1,1.65,1.14c2.64,2.21,5.65,4.81,7.45,7.91,0,0,0,0,0,0C107,24.23,105.39,25.66,103.69,26.47Z" transform="translate(-37.99 -4.67)"/>
      <path class="cls-2" d="M103.69,26.47c1.7-.81,3.32-2.25,5.14-2.62,0,.35,0,.71,0,1.06a1.38,1.38,0,0,1-.05.5,1.07,1.07,0,0,1-.55.52,41,41,0,0,1-9.36,3.69,2.87,2.87,0,0,1-1.87,0,4.18,4.18,0,0,1-.34-1.79l0-.07a1.7,1.7,0,0,0,.47.17,3.12,3.12,0,0,0,1.54-.32C100.35,27.09,102.13,27.21,103.69,26.47Z" transform="translate(-37.99 -4.67)"/>
      <path class="cls-2" d="M90,24.46a12.1,12.1,0,0,0-3.37-3.2,13.76,13.76,0,0,1,.3-2.69c.06,1.15,1.74,2.27,2.59,3,2.4,2,4.2,4.41,6.84,6l.34.19,0,.07A4.18,4.18,0,0,0,97,29.65a1.53,1.53,0,0,0,.3.56A19.22,19.22,0,0,1,90,24.46Z" transform="translate(-37.99 -4.67)"/>
    </g>
    <g>
      <path class="cls-3" d="M87,18.57A1.2,1.2,0,0,1,87,18.1" transform="translate(-37.99 -4.67)"/>
      <path class="cls-3" d="M108.83,23.85c-1.82.37-3.44,1.81-5.14,2.62s-3.34.62-5,1.18A3.12,3.12,0,0,1,97.2,28a1.7,1.7,0,0,1-.47-.17l-.34-.19c-2.64-1.61-4.44-4-6.84-6-.85-.73-2.53-1.85-2.59-3" transform="translate(-37.99 -4.67)"/>
      <path class="cls-3" d="M96.69,27.86A4.18,4.18,0,0,0,97,29.65a1.53,1.53,0,0,0,.3.56A19.22,19.22,0,0,1,90,24.46a12.1,12.1,0,0,0-3.37-3.2,13.76,13.76,0,0,1,.3-2.69h0a2.1,2.1,0,0,1,1.13-1.46,38.41,38.41,0,0,1,8.08-2.44,6,6,0,0,1,3.58.13,7,7,0,0,1,1.65,1.14c2.64,2.21,5.65,4.81,7.45,7.91" transform="translate(-37.99 -4.67)"/>
      <path class="cls-3" d="M97,29.64h0a2.87,2.87,0,0,0,1.87,0,41,41,0,0,0,9.36-3.69,1.07,1.07,0,0,0,.55-.52,1.38,1.38,0,0,0,.05-.5c0-.35,0-.71,0-1.06,0,0,0,0,0,0v-.3" transform="translate(-37.99 -4.67)"/>
    </g>
  </g>
  <g>
    <g>
      <path class="cls-1" d="M122.63,35h0Z" transform="translate(-37.99 -4.67)"/>
      <path class="cls-1" d="M117.2,37.6c-1.64.74-3.52.63-5.23,1.19a3.45,3.45,0,0,1-1.63.32,2,2,0,0,1-.49-.17l-.36-.2c-2.78-1.59-4.67-3.95-7.2-6-.9-.71-2.68-1.84-2.73-3a2.1,2.1,0,0,1,1.18-1.46,43,43,0,0,1,8.54-2.45,6.81,6.81,0,0,1,3.78.12,8,8,0,0,1,1.74,1.13c2.77,2.19,5.95,4.77,7.83,7.83h0C120.71,35.37,119,36.8,117.2,37.6Z" transform="translate(-37.99 -4.67)"/>
      <path class="cls-2" d="M122.61,36.54a1.13,1.13,0,0,1-.59.52,45.17,45.17,0,0,1-9.89,3.68,3.15,3.15,0,0,1-2,0,3.94,3.94,0,0,1-.35-1.77l0-.06a2,2,0,0,0,.49.17,3.45,3.45,0,0,0,1.63-.32c1.71-.56,3.58-.45,5.23-1.19,1.79-.8,3.51-2.23,5.43-2.61,0,.35,0,.7,0,1.06A1.21,1.21,0,0,1,122.61,36.54Z" transform="translate(-37.99 -4.67)"/>
      <path class="cls-2" d="M110.17,40.77a1.41,1.41,0,0,0,.31.56,20,20,0,0,1-7.68-5.69,12.25,12.25,0,0,0-3.56-3.17,12.53,12.53,0,0,1,.33-2.68c.05,1.14,1.83,2.26,2.73,3,2.53,2,4.42,4.38,7.2,6l.36.2,0,.06A3.94,3.94,0,0,0,110.17,40.77Z" transform="translate(-37.99 -4.67)"/>
    </g>
    <g>
      <path class="cls-3" d="M109.82,39a3.94,3.94,0,0,0,.35,1.77,1.41,1.41,0,0,0,.31.56,20,20,0,0,1-7.68-5.69,12.25,12.25,0,0,0-3.56-3.17,12.53,12.53,0,0,1,.33-2.68,2.1,2.1,0,0,1,1.18-1.46,43,43,0,0,1,8.54-2.45,6.81,6.81,0,0,1,3.78.12,8,8,0,0,1,1.74,1.13c2.77,2.19,5.95,4.77,7.83,7.83h0c-1.92.38-3.64,1.81-5.43,2.61-1.64.74-3.52.63-5.23,1.19a3.45,3.45,0,0,1-1.63.32,2,2,0,0,1-.49-.17l-.36-.2c-2.78-1.59-4.67-3.95-7.2-6-.9-.71-2.68-1.84-2.73-3a1.14,1.14,0,0,1,.08-.47" transform="translate(-37.99 -4.67)"/>
      <path class="cls-3" d="M110.14,40.76h0a3.15,3.15,0,0,0,2,0A45.17,45.17,0,0,0,122,37.06a1.13,1.13,0,0,0,.59-.52,1.21,1.21,0,0,0,0-.5c0-.36,0-.71,0-1.06h0v-.29" transform="translate(-37.99 -4.67)"/>
    </g>
  </g>
  <g>
    <g>
      <path class="cls-1" d="M130.35,48.12c-1.64.74-3.52.63-5.23,1.19a3.48,3.48,0,0,1-1.63.32,1.88,1.88,0,0,1-.5-.18l-.36-.19c-2.78-1.59-4.67-3.95-7.2-6-.9-.71-2.68-1.84-2.73-3a2.1,2.1,0,0,1,1.19-1.46,43,43,0,0,1,8.53-2.45,6.81,6.81,0,0,1,3.78.12,7.82,7.82,0,0,1,1.74,1.13c2.78,2.19,5.95,4.77,7.84,7.84,0,0,0,0,0,0C133.87,45.88,132.14,47.32,130.35,48.12Z" transform="translate(-37.99 -4.67)"/>
      <path class="cls-2" d="M135.75,47.06a1.14,1.14,0,0,1-.58.52,45.38,45.38,0,0,1-9.89,3.68,3.17,3.17,0,0,1-2,0,3.93,3.93,0,0,1-.35-1.77l0-.07a1.88,1.88,0,0,0,.5.18,3.48,3.48,0,0,0,1.63-.32c1.71-.56,3.58-.45,5.23-1.19,1.79-.8,3.52-2.23,5.43-2.61,0,.35,0,.7,0,1.06A1.22,1.22,0,0,1,135.75,47.06Z" transform="translate(-37.99 -4.67)"/>
      <path class="cls-2" d="M123.31,51.29a1.41,1.41,0,0,0,.31.56,20,20,0,0,1-7.68-5.69A12.31,12.31,0,0,0,112.38,43a12.92,12.92,0,0,1,.32-2.68c.05,1.14,1.84,2.26,2.73,3,2.53,2,4.42,4.38,7.2,6l.36.19,0,.07A3.93,3.93,0,0,0,123.31,51.29Z" transform="translate(-37.99 -4.67)"/>
    </g>
    <g>
      <path class="cls-3" d="M135.78,45.5c-1.92.38-3.64,1.81-5.43,2.61-1.64.74-3.52.63-5.23,1.19a3.48,3.48,0,0,1-1.63.32,1.88,1.88,0,0,1-.5-.18l-.36-.19c-2.78-1.59-4.67-3.95-7.2-6-.9-.71-2.68-1.84-2.73-3a1.14,1.14,0,0,1,.08-.47" transform="translate(-37.99 -4.67)"/>
      <path class="cls-3" d="M123,49.52a3.93,3.93,0,0,0,.35,1.77,1.41,1.41,0,0,0,.31.56,20,20,0,0,1-7.68-5.69A12.31,12.31,0,0,0,112.38,43a12.92,12.92,0,0,1,.32-2.68,2.1,2.1,0,0,1,1.19-1.46,43,43,0,0,1,8.53-2.45,6.81,6.81,0,0,1,3.78.12,7.82,7.82,0,0,1,1.74,1.13c2.78,2.19,5.95,4.77,7.84,7.84" transform="translate(-37.99 -4.67)"/>
      <path class="cls-3" d="M123.28,51.28h0a3.17,3.17,0,0,0,2,0,45.38,45.38,0,0,0,9.89-3.68,1.14,1.14,0,0,0,.58-.52,1.22,1.22,0,0,0,.06-.5c0-.36,0-.71,0-1.06,0,0,0,0,0,0v-.3" transform="translate(-37.99 -4.67)"/>
    </g>
  </g>
  <g>
    <g>
      <path class="cls-1" d="M88.85,31.72c-1.64.73-3.52.62-5.23,1.18a3.48,3.48,0,0,1-1.63.32,2.09,2.09,0,0,1-.5-.17l-.36-.19c-2.78-1.6-4.67-4-7.2-6-.9-.72-2.68-1.84-2.73-3a2.11,2.11,0,0,1,1.19-1.45A42.17,42.17,0,0,1,80.93,20a6.75,6.75,0,0,1,3.78.11,7.64,7.64,0,0,1,1.74,1.14c2.78,2.19,5.95,4.77,7.84,7.84,0,0,0,0,0,0C92.37,29.48,90.64,30.91,88.85,31.72Z" transform="translate(-37.99 -4.67)"/>
      <path class="cls-2" d="M88.85,31.72c1.79-.81,3.52-2.24,5.43-2.61,0,.35,0,.71,0,1.05a1.18,1.18,0,0,1-.06.5,1.11,1.11,0,0,1-.58.52,45.4,45.4,0,0,1-9.89,3.69,3.21,3.21,0,0,1-2,0,4,4,0,0,1-.35-1.77l0-.07a2.09,2.09,0,0,0,.5.17,3.48,3.48,0,0,0,1.63-.32C85.33,32.34,87.21,32.45,88.85,31.72Z" transform="translate(-37.99 -4.67)"/>
      <path class="cls-2" d="M81.81,34.89a1.49,1.49,0,0,0,.31.56,20,20,0,0,1-7.68-5.69,12.4,12.4,0,0,0-3.55-3.17,13,13,0,0,1,.32-2.68c.05,1.14,1.84,2.26,2.73,3,2.53,2,4.42,4.37,7.2,6l.36.19,0,.07A4,4,0,0,0,81.81,34.89Z" transform="translate(-37.99 -4.67)"/>
    </g>
    <g>
      <path class="cls-3" d="M94.28,29.1c-1.92.37-3.64,1.81-5.43,2.61-1.64.73-3.52.62-5.23,1.18a3.48,3.48,0,0,1-1.63.32,2.09,2.09,0,0,1-.5-.17l-.36-.19c-2.78-1.6-4.67-4-7.2-6-.9-.72-2.68-1.84-2.73-3a1.13,1.13,0,0,1,.08-.47" transform="translate(-37.99 -4.67)"/>
      <path class="cls-3" d="M81.46,33.12a4,4,0,0,0,.35,1.77,1.49,1.49,0,0,0,.31.56,20,20,0,0,1-7.68-5.69,12.4,12.4,0,0,0-3.55-3.17,13,13,0,0,1,.32-2.68,2.11,2.11,0,0,1,1.19-1.45A42.17,42.17,0,0,1,80.93,20a6.75,6.75,0,0,1,3.78.11,7.64,7.64,0,0,1,1.74,1.14c2.78,2.19,5.95,4.77,7.84,7.84" transform="translate(-37.99 -4.67)"/>
      <path class="cls-3" d="M81.78,34.88h0a3.21,3.21,0,0,0,2,0,45.4,45.4,0,0,0,9.89-3.69,1.11,1.11,0,0,0,.58-.52,1.18,1.18,0,0,0,.06-.5c0-.34,0-.7,0-1.05,0,0,0,0,0,0v-.3" transform="translate(-37.99 -4.67)"/>
    </g>
  </g>
  <g>
    <g>
      <path class="cls-1" d="M101.43,42.86c-1.64.73-3.52.62-5.23,1.18a3.48,3.48,0,0,1-1.63.32,2.09,2.09,0,0,1-.5-.17L93.72,44c-2.78-1.6-4.67-4-7.2-6-.9-.72-2.68-1.84-2.73-3A2.11,2.11,0,0,1,85,33.6a42.17,42.17,0,0,1,8.53-2.45,6.75,6.75,0,0,1,3.78.11A7.64,7.64,0,0,1,99,32.41c2.78,2.19,5.95,4.77,7.84,7.84,0,0,0,0,0,0C104.95,40.62,103.23,42.06,101.43,42.86Z" transform="translate(-37.99 -4.67)"/>
      <path class="cls-2" d="M106.84,41.8a1.11,1.11,0,0,1-.58.52A45.4,45.4,0,0,1,96.36,46a3.21,3.21,0,0,1-2,0A4,4,0,0,1,94,44.26l0-.07a2.09,2.09,0,0,0,.5.17A3.48,3.48,0,0,0,96.2,44c1.71-.56,3.58-.45,5.23-1.18,1.79-.81,3.52-2.24,5.43-2.61,0,.35,0,.71,0,1.05A1.18,1.18,0,0,1,106.84,41.8Z" transform="translate(-37.99 -4.67)"/>
      <path class="cls-2" d="M94.39,46a1.49,1.49,0,0,0,.31.56A20,20,0,0,1,87,40.9a12.4,12.4,0,0,0-3.55-3.17,13,13,0,0,1,.32-2.68c.05,1.14,1.84,2.26,2.73,3,2.53,2,4.42,4.37,7.2,6l.36.19,0,.07A4,4,0,0,0,94.39,46Z" transform="translate(-37.99 -4.67)"/>
    </g>
    <g>
      <path class="cls-3" d="M106.86,40.25c-1.92.37-3.64,1.81-5.43,2.61-1.64.73-3.52.62-5.23,1.18a3.48,3.48,0,0,1-1.63.32,2.09,2.09,0,0,1-.5-.17L93.72,44c-2.78-1.6-4.67-4-7.2-6-.9-.72-2.68-1.84-2.73-3a1.13,1.13,0,0,1,.08-.47" transform="translate(-37.99 -4.67)"/>
      <path class="cls-3" d="M94,44.26A4,4,0,0,0,94.39,46a1.49,1.49,0,0,0,.31.56A20,20,0,0,1,87,40.9a12.4,12.4,0,0,0-3.55-3.17,13,13,0,0,1,.32-2.68A2.11,2.11,0,0,1,85,33.6a42.17,42.17,0,0,1,8.53-2.45,6.75,6.75,0,0,1,3.78.11A7.64,7.64,0,0,1,99,32.41c2.78,2.19,5.95,4.77,7.84,7.84" transform="translate(-37.99 -4.67)"/>
      <path class="cls-3" d="M94.36,46h0a3.21,3.21,0,0,0,2,0,45.4,45.4,0,0,0,9.89-3.69,1.11,1.11,0,0,0,.58-.52,1.18,1.18,0,0,0,.06-.5c0-.34,0-.7,0-1.05,0,0,0,0,0,0v-.3" transform="translate(-37.99 -4.67)"/>
    </g>
  </g>
  <g>
    <g>
      <path class="cls-1" d="M109.35,54.56a3.45,3.45,0,0,1-1.63.32,2,2,0,0,1-.49-.17l-.36-.19c-2.79-1.6-4.68-4-7.2-6-.9-.72-2.68-1.84-2.73-3a2.07,2.07,0,0,1,1.19-1.45,42.23,42.23,0,0,1,8.54-2.45,6.73,6.73,0,0,1,3.77.11,7.5,7.5,0,0,1,1.74,1.14c2.78,2.19,5.95,4.77,7.84,7.84,0,0,0,0,0,0-1.92.37-3.64,1.81-5.43,2.61C112.93,54.11,111.05,54,109.35,54.56Z" transform="translate(-37.99 -4.67)"/>
      <path class="cls-2" d="M109.51,56.52a3.19,3.19,0,0,1-2,0,4,4,0,0,1-.36-1.77l0-.07a2,2,0,0,0,.49.17,3.45,3.45,0,0,0,1.63-.32c1.71-.56,3.58-.45,5.23-1.18,1.79-.81,3.52-2.24,5.43-2.61,0,.35,0,.71,0,1.05a1.18,1.18,0,0,1-.06.5,1.09,1.09,0,0,1-.58.52A45.29,45.29,0,0,1,109.51,56.52Z" transform="translate(-37.99 -4.67)"/>
      <path class="cls-2" d="M107.54,56.55a1.51,1.51,0,0,0,.3.56,20,20,0,0,1-7.68-5.69,12.42,12.42,0,0,0-3.56-3.17,12.6,12.6,0,0,1,.33-2.68c.06,1.14,1.84,2.26,2.73,3,2.52,2,4.41,4.37,7.2,6l.36.19,0,.07A4,4,0,0,0,107.54,56.55Z" transform="translate(-37.99 -4.67)"/>
    </g>
    <g>
      <path class="cls-3" d="M120,50.77c-1.92.37-3.64,1.81-5.43,2.61-1.64.73-3.52.62-5.23,1.18a3.45,3.45,0,0,1-1.63.32,2,2,0,0,1-.49-.17l-.36-.19c-2.79-1.6-4.68-4-7.2-6-.9-.72-2.68-1.84-2.73-3A1,1,0,0,1,97,45.1" transform="translate(-37.99 -4.67)"/>
      <path class="cls-3" d="M107.19,54.78a4,4,0,0,0,.36,1.77,1.51,1.51,0,0,0,.3.56,20,20,0,0,1-7.68-5.69,12.42,12.42,0,0,0-3.56-3.17,12.6,12.6,0,0,1,.33-2.68,2.07,2.07,0,0,1,1.19-1.45,42.23,42.23,0,0,1,8.54-2.45,6.73,6.73,0,0,1,3.77.11,7.5,7.5,0,0,1,1.74,1.14c2.78,2.19,5.95,4.77,7.84,7.84" transform="translate(-37.99 -4.67)"/>
      <path class="cls-3" d="M107.51,56.54h0a3.19,3.19,0,0,0,2,0,45.29,45.29,0,0,0,9.89-3.69,1.09,1.09,0,0,0,.58-.52,1.18,1.18,0,0,0,.06-.5c0-.34,0-.7,0-1.05,0,0,0,0,0,0v-.3" transform="translate(-37.99 -4.67)"/>
    </g>
  </g>
  <ellipse class="cls-4" cx="67.14" cy="31.46" rx="3.85" ry="4.89" transform="translate(-40.58 52.02) rotate(-45)"/>
  <ellipse class="cls-4" cx="97.22" cy="20.82" rx="3.85" ry="4.89" transform="translate(-21.19 74.61) rotate(-48.11)"/>
  <ellipse class="cls-5" cx="72.43" cy="40.87" rx="1.79" ry="2.22" transform="translate(-16.65 101.81) rotate(-81.53)"/>
  <ellipse class="cls-5" cx="110.58" cy="27.92" rx="1.99" ry="1.62" transform="translate(-39.35 45.09) rotate(-25.21)"/>
  <path class="cls-6" d="M91.78,37l7.35-2.3a3.55,3.55,0,0,1-2.16,5C93.11,41.23,91.48,38,91.78,37Z" transform="translate(-37.99 -4.67)"/>
  <path class="cls-4" d="M93.6,36.73l3.66-1.14a1.77,1.77,0,0,1-1.07,2.5C94.26,38.84,93.45,37.24,93.6,36.73Z" transform="translate(-37.99 -4.67)"/>
  <ellipse cx="68.45" cy="32.12" rx="3.85" ry="4.89" transform="translate(-40.66 53.14) rotate(-45)"/>
  <ellipse cx="97.37" cy="22.26" rx="3.85" ry="4.89" transform="translate(-25.22 70.7) rotate(-45)"/>
</svg>
