<?xml version="1.0" encoding="utf-8"?>
<!-- Generator: Adobe Illustrator 21.1.0, SVG Export Plug-In . SVG Version: 6.00 Build 0)  -->
<svg version="1.1" id="Layer_1" xmlns="http://www.w3.org/2000/svg" xmlns:xlink="http://www.w3.org/1999/xlink" x="0px" y="0px"
	 viewBox="0 0 180 80" style="enable-background:new 0 0 180 80;" xml:space="preserve">
<style type="text/css">
	.st0{fill:#FFFFCC;}
	.st1{fill:none;stroke:#000000;stroke-miterlimit:10;}
	.st2{fill:#FFCCCC;stroke:#231F20;stroke-linecap:round;stroke-miterlimit:10;}
	.st3{fill:#FFCCCC;}
	.st4{fill:#CCCCCC;}
	.st5{fill:#FFFFFF;stroke:#000000;stroke-miterlimit:10;}
</style>
<g id="XMLID_76_">
	<g>
		<path class="st0" d="M93.5,8C81.6,8,72,19.6,72,33.8c0,14.3,9.6,25.9,21.5,25.9c11.9,0,21.5-11.6,21.5-25.9
			C115,19.6,105.3,8,93.5,8z"/>
	</g>
	<g>
		<path class="st1" d="M72,33.8c0,14.3,9.6,25.9,21.5,25.9c11.9,0,21.5-11.6,21.5-25.9C115,19.6,105.3,8,93.5,8
			C81.6,8,72,19.6,72,33.8z"/>
	</g>
</g>
<path class="st1" d="M81.5,30.5c-0.3-0.8-0.1-1.6,0.6-2.2c0.6-0.5,1.5-0.8,2.4-0.7c0.7,0.1,1.2,0.5,1.6,0.8c0.7,0.5,1,1.1,1.1,1.5"
	/>
<path class="st2" d="M90.8,40.3c1.8,0.2,3.6-0.7,5-1.6c1.5-1,2.8-2.2,3.8-3.5c-4.3,0-8.6-0.1-12.8-0.1C86.9,37.9,88.7,40,90.8,40.3z
	"/>
<path class="st1" d="M97,30.5c-0.3-1.1,0.2-2.6,2-2.9c0.7-0.1,1.6,0.1,2.3,0.3c1,0.4,1.3,1.2,1.5,1.9"/>
<ellipse class="st3" cx="106.7" cy="34.9" rx="2.6" ry="2"/>
<ellipse class="st3" cx="80" cy="36" rx="2.6" ry="2"/>
<path class="st4" d="M97.6,56.9c4.6-1.1,8.4-4,10-7.4c-0.5,1-7.5,2.5-8.9,2.9c-2.9,0.8-6,1-8.8,1.8c-2,0.6-4.1,1.3-2.4,2.9
	C89.5,58.8,95.2,57.5,97.6,56.9z"/>
<path class="st5" d="M97.8,58.7c0.8,2.3,1.2,4.9,0.5,7.3c-0.3,0.9-0.7,1.7-0.8,2.6s-0.1,1.9,0.4,2.6c0.7,0.9,2,1.1,3.2,1.1
	c1.7,0.1,3.4,0.2,5.2,0.3c0.8,0.1,1.7,0.1,2.5-0.2c0.9-0.3,1.5-1,2.1-1.8c0.4-0.6,0.8-1.2,0.8-1.9c0.1-1.2-0.9-2.3-2-2.8
	c-1.1-0.5-2.4-0.6-3.6-0.8c-1.2-0.3-2.4-0.8-3-1.8c-0.3-0.6-0.4-1.2-0.6-1.9c-0.2-1-0.3-2-0.5-3"/>
<path class="st5" d="M81.5,52.5c-2,1.5-3.8,3.4-4.6,5.7c-0.3,0.9-0.4,1.7-0.8,2.6s-0.9,1.6-1.8,1.9c-1.1,0.3-2.3-0.3-3.3-0.9
	c-1.5-0.9-3-1.8-4.4-2.7c-0.7-0.4-1.5-0.9-1.9-1.6c-0.5-0.8-0.7-1.7-0.7-2.7c0-0.7,0-1.4,0.4-2c0.6-1,2-1.4,3.2-1.1s2.3,0.9,3.4,1.4
	c1.1,0.5,2.4,0.7,3.5,0.2c0.6-0.3,1.1-0.8,1.5-1.2c0.7-0.7,1.4-1.5,2.1-2.2"/>
<path class="st1" d="M73.5,32.1c-3-0.6-6.1-1.2-8.7-2.9c-1.9-1.3-3.5-3.2-4.4-5.3c-0.5-1.1-0.7-2.6,0.3-3.3c-0.2-1-0.5-1.9-1.1-2.7
	c-1.1,0.7-2.1,1.5-2.9,2.5c0.8,0.6,1.9,1,3,0.9"/>
<path class="st1" d="M112,32.9c2.6,1.7,5.2,3.4,7,6c1.3,1.9,2.1,4.2,2.1,6.6c0,1.2-0.4,2.7-1.5,3c-0.2,1-0.2,2,0,2.9
	c1.3-0.2,2.5-0.6,3.6-1.2c-0.5-0.9-1.4-1.6-2.4-1.9"/>
</svg>
