<?xml version="1.0" encoding="utf-8"?>
<!-- Generator: Adobe Illustrator 21.1.0, SVG Export Plug-In . SVG Version: 6.00 Build 0)  -->
<svg version="1.1" id="Layer_1" xmlns="http://www.w3.org/2000/svg" xmlns:xlink="http://www.w3.org/1999/xlink" x="0px" y="0px"
	 viewBox="0 0 180 100" style="enable-background:new 0 0 180 100;" xml:space="preserve">
<style type="text/css">
	.st0{fill:#F9F29B;}
	.st1{fill:#FFFFFF;}
	.st2{fill:none;stroke:#000000;stroke-miterlimit:10;}
	.st3{fill:none;stroke:#000000;stroke-width:3;stroke-miterlimit:10;}
	.st4{fill:none;}
	.st5{stroke:#000000;stroke-miterlimit:10;}
	.st6{fill:#FFCC66;}
</style>
<g>
	<g id="XMLID_34_">
		<g>
			<path class="st0" d="M112.2,37.9c1.4,5.8,2.8,13.6,2.6,21.3c-9,10.2-59.6,2.8-59.6,2.8l-0.2,0c-0.6-5.8-0.3-12.9,2.1-21l0.1,0
				c0,0,42.8,5,54.8-3L112.2,37.9z"/>
			<path class="st1" d="M112.2,37.9L112,38c-12,8-54.8,3-54.8,3l-0.1,0c1-3.6,2.5-7.4,4.3-11.5c0,0-9-5,0-9s8,5,8,5s25-9,33,0
				c0,0,0-9,8-6s-1,9-1,9S110.9,32.3,112.2,37.9z"/>
			<path class="st1" d="M109.5,78.5c5,4,1.1,9.8,1.1,9.8s-4.1,3.2-8.1-0.8c0,0-27,6-35-1c-2,5-8,1-8,1s-3-2,2-7
				c0,0-5.2-6.6-6.4-18.5l0.2,0c0,0,50.6,7.4,59.6-2.8C114.7,66.2,113.3,73.1,109.5,78.5z"/>
		</g>
		<g>
			<path class="st2" d="M57.2,41c1-3.6,2.5-7.4,4.3-11.5c0,0-9-5,0-9s8,5,8,5s25-9,33,0c0,0,0-9,8-6s-1,9-1,9s1.4,3.8,2.7,9.4
				c1.4,5.8,2.8,13.6,2.6,21.3c-0.1,7-1.5,13.9-5.3,19.3c5,4,1.1,9.8,1.1,9.8s-4.1,3.2-8.1-0.8c0,0-27,6-35-1c-2,5-8,1-8,1s-3-2,2-7
				c0,0-5.2-6.6-6.4-18.5C54.5,56.2,54.8,49.2,57.2,41z"/>
			<path class="st2" d="M57.2,41c0,0,42.8,5,54.8-3"/>
			<path class="st2" d="M55.2,62c0,0,50.6,7.4,59.6-2.8c0.1-0.1,0.1-0.1,0.2-0.2"/>
		</g>
	</g>
</g>
<path class="st3" d="M71.5,69.5c0.4,7.2,19.5,15.7,26,1"/>
<path id="SVGID_x5F_1_x5F_" class="st4" d="M54.2,57c0,0,51.2,7.5,59.8-3"/>
<text><textPath  xlink:href="#SVGID_x5F_1_x5F_" startOffset="17.1875%">
<tspan  style="font-family:'Chalkboard'; font-size:20px;">Flour</tspan></textPath>
</text>
<path class="st5" d="M86.6,42c0.2-4.8,3.1-7.8,5.1-7.6c1.9,0.2,4,3.3,3.8,7.6"/>
<path class="st5" d="M72.6,42c0.2-4.8,3.1-7.8,5.1-7.6c1.9,0.2,4,3.3,3.8,7.6"/>
<path class="st6" d="M94.1,36.2C93.5,37,92.7,37.3,92,37c0.4,0.1,0.7,0.7,0.7,1.4c0,0.7-0.1,1.4-0.2,2c0-0.1,0-0.3,0.1-0.4
	c0.2-0.5,0.6-0.8,1-0.8c0.4,0,0.7,0.3,1,0.6c-0.5-0.5-0.8-1.2-0.9-2.1c0-0.4,0-0.7,0.1-1.1s0.3-0.6,0.6-0.5"/>
<path class="st6" d="M73.9,39.8c0.9-0.5,1.8-0.4,2.2,0.2c-0.3-0.2-0.3-0.9-0.1-1.6c0.2-0.6,0.7-1.2,1.1-1.8c0,0.1-0.1,0.2-0.2,0.3
	c-0.4,0.4-0.9,0.4-1.2,0.3s-0.5-0.5-0.7-1c0.2,0.6,0.2,1.5-0.1,2.3c-0.1,0.3-0.3,0.7-0.5,0.9c-0.2,0.3-0.6,0.4-0.7,0.3"/>
<path class="st2" d="M118.9,62c0.2,3.6,0.3,7.4-1.6,10.5c-0.9,1.4-2.2,2.6-2.5,4.2"/>
<path class="st2" d="M57,17.9c-1.8,0.2-3.2,1.8-3.6,3.5c-0.4,1.7-0.2,3.6,0.1,5.4"/>
<path class="st1" d="M101,7c-1.1,0.4-1.6,2.3-1,3c0.5,0.5,1.8,0.3,1.8,0.2c0-0.1-1-0.5-1.8-0.2c-0.7,0.3-1.1,1.2-1,2
	c0.1,0.9,0.7,2,1.7,2c0.7,0,1.3-0.4,1.6-1.1c-0.1,0-0.2,0-0.4,0.1c-0.6,0.2-0.9,0.9-1,1c-0.1,0.1-0.5,1.1,0.1,2
	c0.4,0.6,1.3,0.9,1.8,0.7c0.7-0.3,1-1.1,1.3-1.8c-0.2,0.5,0.4,0.9,0.8,1.1c0.5,0.2,0.9,0.4,1.5,0.4c0.1,0,0.9-0.2,1.1-0.9
	c0.2-0.6-0.3-1.1-0.5-1.5c-0.5-0.6-1.2-0.9-1.6-1.1c0.1,0.1,0.6,0.9,1.6,1.1c0.8,0.1,1.4-0.2,1.5-0.3c0.2-0.1,0.6-0.4,0.9-0.9
	c0.4-0.9-0.1-2.6-1.4-2.8c-0.9-0.2-2,0.4-2.3,1.5c0.2-0.1,1-0.6,1.3-1.5c0.3-0.9,0.3-2.2-0.6-2.8c-0.4-0.3-1.3-0.7-1.9-0.2
	c-0.6,0.5-0.6,1.4-0.5,2C103.4,7.4,102,6.6,101,7z"/>
<path class="st1" d="M111,38c-1.1,0.4-1.6,2.3-1,3c0.5,0.5,1.8,0.3,1.8,0.2c0-0.1-1-0.5-1.8-0.2c-0.7,0.3-1.1,1.2-1,2
	c0.1,0.9,0.7,2,1.7,2c0.7,0,1.3-0.4,1.6-1.1c-0.1,0-0.2,0-0.4,0.1c-0.6,0.2-0.9,0.9-1,1c-0.1,0.1-0.5,1.1,0.1,2
	c0.4,0.6,1.3,0.9,1.8,0.7c0.7-0.3,1-1.1,1.3-1.8c-0.2,0.5,0.4,0.9,0.8,1.1c0.5,0.2,0.9,0.4,1.5,0.4c0.1,0,0.9-0.2,1.1-0.9
	c0.2-0.6-0.3-1.1-0.5-1.5c-0.5-0.6-1.2-0.9-1.6-1.1c0.1,0.1,0.6,0.9,1.6,1.1c0.8,0.1,1.4-0.2,1.5-0.3c0.2-0.1,0.6-0.4,0.9-0.9
	c0.4-0.9-0.1-2.6-1.4-2.8c-0.9-0.2-2,0.4-2.3,1.5c0.2-0.1,1-0.6,1.3-1.5c0.3-0.9,0.3-2.2-0.6-2.8c-0.4-0.3-1.3-0.7-1.9-0.2
	c-0.6,0.5-0.6,1.4-0.5,2C113.4,38.4,112,37.6,111,38z"/>
</svg>
