<?xml version="1.0" encoding="utf-8"?>
<!-- Generator: Adobe Illustrator 21.1.0, SVG Export Plug-In . SVG Version: 6.00 Build 0)  -->
<svg version="1.1" id="Layer_1" xmlns="http://www.w3.org/2000/svg" xmlns:xlink="http://www.w3.org/1999/xlink" x="0px" y="0px"
	 viewBox="0 0 80 150" style="enable-background:new 0 0 80 150;" xml:space="preserve">
<style type="text/css">
	.st0{fill:#B4E0FC;}
	.st1{fill:none;stroke:#000000;stroke-width:0.75;stroke-miterlimit:10;}
	.st2{fill:#A2DCFC;}
	.st3{fill:#F4DBCE;}
	.st4{fill:#FFFFFF;}
	.st5{fill:#333333;}
	.st6{fill:#FCB4D2;}
	.st7{fill:#7A5B41;}
	.st8{fill:#ED1E79;}
	.st9{fill:#ED1E79;stroke:#000000;stroke-width:0.75;stroke-miterlimit:10;}
	.st10{fill:#F7CBDD;}
</style>
<g id="XMLID_6_">
	<g>
		<path class="st0" d="M34.9,124c1.5,1.3,0,10.9-0.9,16h0c0,0-5.2,0.2-8.8,1.8l0-0.1c-2.4-1.3,0.3-19.9,0.3-19.9
			S32.8,122.2,34.9,124z"/>
		<path d="M33.9,140L33.9,140c-0.3,1.9-0.6,3.2-0.6,3.2l-6.6,4.1c-1.4,0.6-2.8,0.6-3.5-0.1c-1.1-1.1-0.6-3.9,0.6-4.7
			c0.4-0.3,0.9-0.5,1.4-0.8C28.8,140.2,33.9,140,33.9,140z"/>
	</g>
	<g>
		<path class="st1" d="M33.9,140c0,0-5.2,0.2-8.8,1.8c-0.5,0.2-1,0.5-1.4,0.8c-1.2,0.8-1.7,3.6-0.6,4.7c0.7,0.7,2.1,0.7,3.5,0.1
			l6.6-4.1C33.3,143.2,33.6,141.9,33.9,140c0.9-5.1,2.4-14.7,1-16c-2-1.8-9.5-2.2-9.5-2.2s-2.7,18.6-0.3,19.9"/>
	</g>
</g>
<g id="XMLID_5_">
	<g>
		<path d="M54.9,142.8c2,1.2,3.1,2.7,3.1,2.7s2.6,2.9-1.7,2.4c-4.3-0.5-7.6-2.8-7.6-2.8c-0.1,0.4-0.4-1.2-0.7-3.7l0.1,0
			C50.8,140.9,53.2,141.8,54.9,142.8z"/>
		<path class="st2" d="M57.1,125.3c0,0,1.8,11.9-2.3,17.5c-1.7-1.1-4-1.9-6.8-1.4l-0.1,0c-0.6-5.4-1.3-14.6-1-14.8
			C49.4,125.2,57.1,125.3,57.1,125.3z"/>
	</g>
	<g>
		<path class="st1" d="M48.1,141.4c2.8-0.5,5.1,0.4,6.8,1.4c2,1.2,3.1,2.7,3.1,2.7s2.6,2.9-1.7,2.4c-4.3-0.5-7.6-2.8-7.6-2.8
			C48.5,145.5,48.3,143.9,48.1,141.4c-0.7-5.4-1.3-14.6-1-14.8c2.4-1.5,10.1-1.3,10.1-1.3s1.8,11.9-2.3,17.5c0,0-0.1,0.1-0.1,0.1"/>
	</g>
</g>
<g>
	<g>
		<g id="XMLID_7_">
			<g>
				<path class="st3" d="M57.6,37.7c0.1-1,0.3-2,0.4-3c0.1-1,0.3-1.9,0.1-2.9c-0.4-1.9-2.1-3.4-4-3.9c-0.3-0.1-0.7-0.1-1-0.2
					c0-0.1-0.1-0.1-0.1-0.1c0,0,0,0.1,0,0.1c-1.5-0.1-3.1,0.3-4.3,1.3c-1.9,1.7-2.2,4.4-2.1,6.9c0,1.4,0.3,2.9,1.5,3.5
					c0.4,0.2,0.9,0.3,1.4,0.3c1.1,0,2.1-0.3,3.2-0.6c1.4-0.4,2.8-0.9,4.3-1.3v0c0.2-0.1,0.3-0.1,0.5-0.2
					C57.5,37.8,57.5,37.8,57.6,37.7z M64.1,24.9c2,11-3.2,20.9-3.2,20.9s-4.5,9.7-15.2,11.9c-3.4,0.7-7.4,0.6-12.1-0.8
					c-0.1,0-0.2-0.1-0.3-0.1c-19.7-6-15.9-32-15.9-32c0.3,4.3,3.4,5.7,7.8,5.5c-0.4,0.6-0.8,1.3-1,2c-0.5,1.6,0,3.3,0.8,4.7
					c0.9,1.7,2.4,3.2,4.4,3.4c0.8,0.1,1.6-0.1,2.4-0.3c1.1-0.2,2.1-0.5,3.2-0.9c0.3-0.1,0.6-0.2,0.8-0.4c0.4-0.2,0.9-0.5,1.1-0.9
					c0.2-0.4,0.3-0.8,0.3-1.3c0.1-1.5,0.1-3-0.3-4.4c-0.4-1.4-1.1-2.7-2.3-3.6C47.4,25.3,63,18.4,64.1,24.9z"/>
				<path class="st4" d="M58,34.8c-0.1,1-0.3,2-0.4,3c-0.1,0-0.1,0-0.1,0c-0.2,0.1-0.3,0.1-0.5,0.2c0-0.1,0.6-4.6-0.8-5.9
					c-0.9,2.6-3.4,1.4-3.8,0.5s-1.8-3.6,1.5-3.8c-0.5-0.6-0.7-0.9-0.8-1c0.3,0,0.7,0.1,1,0.2c1.9,0.5,3.6,2,4,3.9
					C58.3,32.8,58.1,33.8,58,34.8z"/>
				<path class="st5" d="M56.2,32.1c1.3,1.3,0.8,5.7,0.8,5.9v0c-1.4,0.4-2.8,0.9-4.3,1.3c-1,0.3-2.1,0.6-3.2,0.6
					c-0.5,0-0.9-0.1-1.4-0.3c-1.2-0.6-1.5-2.2-1.5-3.5c-0.1-2.5,0.3-5.2,2.1-6.9c1.1-1,2.7-1.5,4.3-1.3c0,0,0,0,0,0
					c0.1,0.1,0.3,0.4,0.8,1c-3.3,0.2-1.9,3-1.5,3.8S55.3,34.7,56.2,32.1z M49.1,37.3c0.4-0.4,0.6-1.1,0.5-1.7c0-0.1,0-0.2-0.1-0.2
					c-0.1-0.2-0.2-0.4-0.4-0.5c-0.5-0.3-0.9,0.4-1,0.8c-0.1,0.3,0,0.6,0,0.8c0,0.2,0.1,0.5,0.2,0.7c0.1,0.1,0.1,0.2,0.3,0.3
					C48.8,37.5,49,37.4,49.1,37.3z"/>
				<path class="st3" d="M53.1,27.8C53.1,27.8,53.1,27.8,53.1,27.8C53.1,27.8,53,27.8,53.1,27.8C53,27.8,53,27.8,53.1,27.8z"/>
				<path class="st4" d="M49.6,35.6c0.1,0.6-0.1,1.2-0.5,1.7c-0.1,0.1-0.3,0.2-0.5,0.2c-0.1,0-0.2-0.1-0.3-0.3
					c-0.1-0.2-0.2-0.5-0.2-0.7c0-0.3-0.1-0.6,0-0.8c0.1-0.4,0.5-1.1,1-0.8c0.2,0.1,0.3,0.3,0.4,0.5C49.6,35.5,49.6,35.5,49.6,35.6z"
					/>
				<path class="st6" d="M61.4,97l2.1,5.1c0,0.1-0.1,0.1-0.1,0.2c4.9,11.8,2.8,17,1.8,18.6c-6.3,10.5-28.7,4.2-45.8,0
					c-6.2-1.5-4.4-7.1-4.4-7.1s3.6-14.4,3.1-13.6c-2,3.1-4.7-7.3-4.7-7.3l1.1-5.7c0,0,0.8-2.9,5.7-12.6c4.7-9.4,10.2-11.6,10.2-11.6
					s2.2-0.5,2.4,0l0,0c0,0,0,0,0,0c0.2,0.2,1.2,1.3,1.9,1.8c2.8,1.8,6.5,1.4,9.5,0.6c0.9-0.3,2.1-0.5,2.9-1
					c0.1-0.1,0.2-0.2,0.2-0.4l0,0.1c0,0,6,0,7,2c1,2.1,8.4,21.3,8.4,21.3s0,0,0,0l1.7,4.5c0,0,0,0,0,0C64.5,91.9,64.2,96.3,61.4,97z
					"/>
				<path class="st3" d="M45.8,57.9l1.6,5.8c0,0.2-0.1,0.3-0.2,0.4c-0.8,0.5-2,0.8-2.9,1c-3.1,0.8-6.7,1.2-9.5-0.6
					c-0.7-0.4-1.8-1.6-1.9-1.8c0.2-0.1,0.8-5.1,0.8-5.7l0,0c0,0,0,0,0,0l0,0v0c4.7,1.4,8.7,1.5,12.1,0.8L45.8,57.9z"/>
				<path class="st5" d="M35,32.4c0-1.4,2.1,3.6,0,6.7h0l0,0.1c-1,0.4-2.1,0.6-3.2,0.9c-0.8,0.2-1.6,0.4-2.4,0.3
					c-1.9-0.2-3.4-1.7-4.4-3.4c-0.8-1.4-1.3-3.1-0.8-4.7c0.2-0.6,0.6-1.4,1-2c1.8-0.1,3.9-0.4,6.2-0.9l0,0.1h0c0,0-0.9,3.6,2.2,4.2
					C33.6,33.8,35,33.8,35,32.4z M29.1,37.9c0.4-0.3,0.6-0.9,0.5-1.3c0-0.1,0-0.1-0.1-0.2c-0.1-0.2-0.2-0.3-0.4-0.4
					c-0.5-0.2-0.9,0.3-1,0.6c-0.1,0.2,0,0.5,0,0.7c0,0.2,0.1,0.4,0.2,0.6c0.1,0.1,0.1,0.2,0.3,0.2C28.8,38.1,28.9,38,29.1,37.9z"/>
				<path class="st4" d="M35.8,38.9c-0.3,0.1-0.5,0.3-0.8,0.4l0-0.1h0c2.1-3.1,0-8.1,0-6.7c0,1.4-1.3,1.4-1.3,1.4
					c-3-0.6-2.2-4.2-2.2-4.2h0l0-0.1c1-0.2,2.1-0.5,3.2-0.8c1.2,0.9,1.9,2.2,2.3,3.6c0.4,1.4,0.4,2.9,0.3,4.4c0,0.4-0.1,0.9-0.3,1.3
					C36.6,38.4,36.2,38.7,35.8,38.9z"/>
				<path class="st7" d="M47.4,63.7L47.4,63.7c0-0.1,0-0.1,0-0.2c0.1-0.8-0.7-2.3-0.8-2.9c-0.3-0.9-0.5-1.9-0.8-2.8l0-0.2
					c10.7-2.2,15.2-11.9,15.2-11.9s5.2-9.9,3.2-20.9c-1.2-6.5-16.7,0.4-29.5,3.8c-1.1,0.3-2.1,0.5-3.2,0.8c-2.2,0.5-4.3,0.8-6.2,0.9
					c-4.5,0.2-7.5-1.2-7.8-5.5c0,0-3.8,26,15.9,32c0.1,0,0.2,0.1,0.3,0.1v0l0,0c0,0,0,0,0,0l0,0l-0.9,5.7c-0.1-0.5-2.4,0-2.4,0
					s-5.5,2.2-10.2,11.6C15.3,84.1,14.5,87,14.5,87c0,0-2.4-0.9-3.1-1.1c-0.5-0.2-4.1-1.6-6.4-4.5c-1.8-2.1-2.3-4.4-2.6-5.5
					c-3.5-14.3,4-35,4-35C13.4,21.5,17.1,12,23.5,7.7c10.3-6.8,22.9-5.4,34.1-1.1c1.3,0.6,3.1,1.7,4.9,3.3c0,0,1.2,1,2.2,2
					c3.8,3.7,6.9,11.9,7.2,12.8c0.7,3.9,7.2,38.2,7,50.8c0,1.3-0.1,3.7-1.6,6c-4.1,6.3-14.5,5.6-14.5,5.6s-7.4-19.3-8.4-21.3
					C53.4,63.7,47.4,63.7,47.4,63.7z"/>
				<path class="st4" d="M29.5,36.5c0.1,0.5-0.1,1-0.5,1.3c-0.1,0.1-0.3,0.2-0.5,0.2c-0.1,0-0.2-0.1-0.3-0.2
					c-0.1-0.2-0.2-0.4-0.2-0.6c0-0.2-0.1-0.5,0-0.7c0.1-0.3,0.5-0.9,1-0.6c0.2,0.1,0.3,0.2,0.4,0.4C29.5,36.4,29.5,36.4,29.5,36.5z"
					/>
				<path class="st3" d="M13.5,92.7c0,0,2.7,10.4,4.7,7.3c-0.1,0.1-0.3,0.7-0.7,1.9c-4.6,2-4.4-7.4-4.4-7.4L13.5,92.7z"/>
			</g>
			<g>
				<path class="st1" d="M13.5,92.7l-0.3,1.8c0,0-0.3,9.3,4.4,7.4c0.4-1.2,0.6-1.8,0.7-1.9c0.5-0.7-3.1,13.6-3.1,13.6
					s-1.8,5.6,4.4,7.1c17,4.2,39.5,10.5,45.8,0c0.9-1.6,3-6.8-1.8-18.6c0-0.1,0.1-0.1,0.1-0.2c2-3.6,1.8-7.5,1.1-10.4c0,0,0,0,0,0
					c-0.6-2.5-1.6-4.3-1.7-4.5"/>
				<path class="st1" d="M62.8,87.1c0,0,10.4,0.7,14.5-5.6c1.5-2.3,1.6-4.7,1.6-6c0.2-12.6-6.3-46.9-7-50.8
					c-0.3-0.9-3.4-9.1-7.2-12.8c-1-1-2.2-2-2.2-2c-1.8-1.7-3.6-2.7-4.9-3.3C46.4,2.3,33.8,0.9,23.5,7.7C17.1,12,13.4,21.5,6.4,41
					c0,0-7.5,20.6-4,35C2.7,77,3.2,79.2,5,81.4c2.4,2.9,5.9,4.3,6.4,4.5c0.7,0.3,3.1,1.1,3.1,1.1"/>
				<path class="st1" d="M32.8,62.7c-0.1-0.5-2.4,0-2.4,0s-5.5,2.2-10.2,11.6C15.3,84.1,14.5,87,14.5,87l-1.1,5.7
					c0,0,2.7,10.4,4.7,7.3l-0.1,0l10.3-28.2"/>
				<path class="st1" d="M33.6,56.9L33.6,56.9C33.6,57,33.6,57,33.6,56.9L33.6,56.9c-0.1,0.7-0.7,5.7-0.8,5.8c0,0,0,0,0,0"/>
				<path class="st1" d="M61.4,97c2.8-0.6,3.2-5.1,3.2-5.3c0,0,0,0,0,0l0,0l-1.7-4.5c0,0,0,0,0,0s-7.4-19.3-8.4-21.3c-1-2.1-7-2-7-2
					l0-0.1l-1.6-5.8c0.3,0.9,0.5,1.9,0.8,2.8c0.2,0.6,0.9,2,0.8,2.9c0,0,0,0.1,0,0.1c0,0.2-0.1,0.3-0.2,0.4c-0.8,0.5-2,0.8-2.9,1
					c-3.1,0.8-6.7,1.2-9.5-0.6c-0.7-0.4-1.8-1.6-1.9-1.8c0,0,0,0,0,0l0,0l0.9-5.7"/>
				<line class="st1" x1="63.7" y1="102.6" x2="63.5" y2="102"/>
				<line class="st1" x1="63.5" y1="102" x2="61.4" y2="97"/>
				<path class="st1" d="M51.2,72.6C54.6,80.7,58,88.8,61.4,97"/>
				<path class="st1" d="M25.3,30.4c-4.5,0.2-7.5-1.2-7.8-5.5c0,0-3.8,26,15.9,32c0.1,0,0.2,0.1,0.3,0.1c4.7,1.4,8.7,1.5,12.1,0.8
					c10.7-2.2,15.2-11.9,15.2-11.9s5.2-9.9,3.2-20.9c-1.2-6.5-16.7,0.4-29.5,3.8c-1.1,0.3-2.1,0.5-3.2,0.8
					C29.2,30,27.1,30.3,25.3,30.4z"/>
				<path class="st1" d="M57,37.9c0.2-0.1,0.3-0.1,0.5-0.2c0,0,0.1,0,0.1,0c1.1-0.4,2.4-0.9,2.6-2"/>
				<path class="st1" d="M57.6,37.9c0-0.1,0-0.1,0-0.2c0.1-1,0.3-2,0.4-3c0.1-1,0.3-1.9,0.1-2.9c-0.4-1.9-2.1-3.4-4-3.9
					c-0.3-0.1-0.7-0.1-1-0.2c0,0,0,0,0,0c-1.5-0.1-3.1,0.3-4.3,1.3c-1.9,1.7-2.2,4.4-2.1,6.9c0,1.4,0.3,2.9,1.5,3.5
					c0.4,0.2,0.9,0.3,1.4,0.3c1.1,0,2.1-0.3,3.2-0.6c1.4-0.4,2.8-0.9,4.3-1.3"/>
				<path class="st1" d="M53,27.8C53,27.8,53.1,27.8,53,27.8"/>
				<path class="st1" d="M57,37.9L57,37.9c0-0.1,0.6-4.6-0.8-5.9c-0.9,2.6-3.4,1.4-3.8,0.5s-1.8-3.6,1.5-3.8c-0.5-0.6-0.7-0.9-0.8-1
					c0-0.1-0.1-0.1-0.1-0.1v0"/>
				<path class="st1" d="M49.6,35.6c0-0.1,0-0.2-0.1-0.2c-0.1-0.2-0.2-0.4-0.4-0.5c-0.5-0.3-0.9,0.4-1,0.8c-0.1,0.3,0,0.6,0,0.8
					c0,0.2,0.1,0.5,0.2,0.7c0.1,0.1,0.1,0.2,0.3,0.3c0.2,0.1,0.3-0.1,0.5-0.2C49.6,36.9,49.7,36.2,49.6,35.6z"/>
				<path class="st1" d="M25.3,30.4c-0.4,0.6-0.8,1.3-1,2c-0.5,1.6,0,3.3,0.8,4.7c0.9,1.7,2.4,3.2,4.4,3.4c0.8,0.1,1.6-0.1,2.4-0.3
					c1.1-0.2,2.1-0.5,3.2-0.9c0.3-0.1,0.6-0.2,0.8-0.4c0.4-0.2,0.9-0.5,1.1-0.9c0.2-0.4,0.3-0.8,0.3-1.3c0.1-1.5,0.1-3-0.3-4.4
					c-0.4-1.4-1.1-2.7-2.3-3.6c0,0,0,0,0,0"/>
				<path class="st1" d="M31.5,29.6c0,0-0.9,3.6,2.2,4.2c0,0,1.3,0,1.3-1.4c0-1.4,2.1,3.6,0,6.7"/>
				<path class="st1" d="M29.5,36.5c0-0.1,0-0.1-0.1-0.2c-0.1-0.2-0.2-0.3-0.4-0.4c-0.5-0.2-0.9,0.3-1,0.6c-0.1,0.2,0,0.5,0,0.7
					c0,0.2,0.1,0.4,0.2,0.6c0.1,0.1,0.1,0.2,0.3,0.2c0.2,0,0.3-0.1,0.5-0.2C29.5,37.5,29.7,37,29.5,36.5z"/>
			</g>
		</g>
	</g>
</g>
<path class="st1" d="M37.4,47.9c0,0,6.2,4.9,8.3-1.2"/>
<g>
	<g id="XMLID_4_">
		<g>
			<path class="st8" d="M68.8,9.7c0.3,0.8,0,1.4-0.4,2.1c-0.6,1-1.6,1.8-2.7,2c-1.4,0.3-2.7-0.2-4-0.1c-1,0.1-2,0.2-3,0.2
				c-0.7,0-1.8-0.1-2.2-0.9c-0.1-0.2-0.1-0.3-0.1-0.5l-0.1,0c0.1-0.6,0.2-1.7-0.5-2.3c1-1.7,2.1-3.2,3.4-4.6c1.2-1.3,3.4-3,5.1-1.5
				c1.3,1.1,2.4,2.3,3.2,3.7C68.2,8.4,68.6,9,68.8,9.7z"/>
			<path d="M51.9,12.6c0.2-1.2,1.2-2.6,2.5-2.7c0.2,0,1-0.1,1.5,0.4c0.7,0.6,0.6,1.7,0.5,2.3c0,0.2-0.1,0.3-0.1,0.4
				c-0.1,0.3-0.5,1.8-1.9,2.2c-0.1,0-0.4,0.1-0.8,0.1c-0.3,0-0.7-0.1-1-0.4C51.7,14.2,51.9,13,51.9,12.6
				C51.9,12.6,51.9,12.6,51.9,12.6z"/>
			<path class="st8" d="M51.9,12.7c0,0.3-0.2,1.6,0.7,2.2c0.3,0.3,0.7,0.3,1,0.4l0,0.2c-2.3,3.8-10.2,5.6-11.2,4.3
				c-1-1.3-0.6-3.5,0.7-7.1C44.1,9.4,50.8,12.1,51.9,12.7C51.9,12.6,51.9,12.6,51.9,12.7z"/>
		</g>
		<g>
			<path class="st1" d="M56.4,12.5c0,0.2-0.1,0.3-0.1,0.4c-0.1,0.3-0.5,1.8-1.9,2.2c-0.1,0-0.4,0.1-0.8,0.1c-0.3,0-0.7-0.1-1-0.4
				c-0.9-0.7-0.7-1.9-0.7-2.2c0,0,0,0,0-0.1c0.2-1.2,1.2-2.6,2.5-2.7c0.2,0,1-0.1,1.5,0.4C56.7,10.9,56.6,11.9,56.4,12.5z"/>
			<path class="st1" d="M52.1,12.7c0,0-0.1,0-0.2-0.1c-1.1-0.5-7.8-3.2-8.9,0.1c-1.2,3.5-1.7,5.8-0.7,7.1c1,1.3,8.9-0.5,11.2-4.3"/>
			<path class="st1" d="M56,10.3c1-1.7,2.1-3.2,3.4-4.6c1.2-1.3,3.4-3,5.1-1.5c1.3,1.1,2.4,2.3,3.2,3.7c0.4,0.6,0.8,1.2,1.1,1.9
				c0.3,0.8,0,1.4-0.4,2.1c-0.6,1-1.6,1.8-2.7,2c-1.4,0.3-2.7-0.2-4-0.1c-1,0.1-2,0.2-3,0.2c-0.7,0-1.8-0.1-2.2-0.9
				c-0.1-0.2-0.1-0.3-0.1-0.5"/>
		</g>
	</g>
</g>
<g>
	<path class="st9" d="M40.3,85.2c0,0-2.1-8.1-7-4.4c-4.9,3.7,6.1,14.4,6.1,14.4"/>
	<path class="st9" d="M40.2,85.2c0,0,3.5-7.6,7.7-3.1c4.2,4.5-8.6,13.1-8.6,13.1"/>
</g>
<path class="st10" d="M57.9,122c3.9-1.3,7.1-5.2,5.9-8.9c-0.5-1.6-7.4-21.6-8.6-21.5c-0.8,0-2.7,5.7-1.1,11.1
	c0.7,2.3,2.2,4.9,2.3,8.9c0,1-0.1,2.1-0.5,3c-0.7,1.6-2.2,2.8-3.7,3.8c-1.9,1.2-4.4,2-6,3.4C48.8,123.7,55.1,122.9,57.9,122z"/>
</svg>
