<?xml version="1.0" encoding="utf-8"?>
<!-- Generator: Adobe Illustrator 21.1.0, SVG Export Plug-In . SVG Version: 6.00 Build 0)  -->
<svg version="1.1" id="Layer_1" xmlns="http://www.w3.org/2000/svg" xmlns:xlink="http://www.w3.org/1999/xlink" x="0px" y="0px"
	 viewBox="0 0 300 300" style="enable-background:new 0 0 300 300;" xml:space="preserve">
<style type="text/css">
	.st0{fill:#B4E0FC;}
	.st1{fill:none;stroke:#000000;stroke-miterlimit:10;}
	.st2{fill:#A2DCFC;}
	.st3{fill:#FCB4D2;}
	.st4{fill:#F4DBCE;}
	.st5{fill:#FFFFFF;}
	.st6{fill:#333333;}
	.st7{fill:#7A5B41;}
	.st8{fill:#ED1E79;}
	.st9{fill:#ED1E79;stroke:#000000;stroke-miterlimit:10;}
	.st10{fill:#F7CBDD;}
	.st11{fill:#FF3300;}
	.st12{fill:#99CC66;}
	.st13{fill:none;stroke:#000000;stroke-width:2;stroke-miterlimit:10;}
	.st14{fill:#FFFFFF;stroke:#000000;stroke-width:2;stroke-miterlimit:10;}
	.st15{stroke:#000000;stroke-width:2;stroke-miterlimit:10;}
	.st16{fill:#FFCCCC;stroke:#000000;stroke-width:2;stroke-linecap:round;stroke-miterlimit:10;}
</style>
<g>
	<g id="XMLID_9_">
		<g>
			<path class="st0" d="M57.1,231.4c2,1.8,0,14.4-1.3,21.1c0,0-6.8,0.2-11.6,2.4l0-0.1c-3.2-1.8,0.4-26.3,0.4-26.3
				S54.4,229,57.1,231.4z"/>
			<path d="M55.9,252.5c-0.5,2.5-0.8,4.2-0.8,4.2l-8.8,5.4c-1.8,0.7-3.7,0.8-4.6-0.1c-1.5-1.4-0.8-5.1,0.8-6.1
				c0.6-0.4,1.2-0.7,1.8-1C49,252.8,55.9,252.5,55.9,252.5z"/>
		</g>
		<g>
			<path class="st1" d="M55.9,252.5c0,0-6.8,0.2-11.6,2.4c-0.7,0.3-1.3,0.6-1.8,1c-1.6,1-2.3,4.7-0.8,6.1c1,0.9,2.8,0.9,4.6,0.1
				l8.8-5.4C55.1,256.8,55.4,255.1,55.9,252.5c1.2-6.7,3.2-19.4,1.3-21.1c-2.7-2.4-12.5-2.9-12.5-2.9s-3.5,24.6-0.4,26.3"/>
		</g>
	</g>
	<g id="XMLID_7_">
		<g>
			<path d="M83.5,256.3c2.6,1.6,4.1,3.6,4.1,3.6s3.4,3.8-2.3,3.1c-5.7-0.7-10-3.7-10-3.7c-0.2,0.5-0.5-1.7-0.9-4.9l0.1,0
				C78.2,253.7,81.3,254.9,83.5,256.3z"/>
			<path class="st2" d="M86.5,233.1c0,0,2.4,15.8-3,23.1c-2.2-1.4-5.3-2.5-9-1.9l-0.1,0c-0.8-7.1-1.7-19.3-1.3-19.5
				C76.3,232.9,86.5,233.1,86.5,233.1z"/>
		</g>
		<g>
			<path class="st1" d="M74.5,254.4c3.7-0.7,6.8,0.5,9,1.9c2.6,1.6,4.1,3.6,4.1,3.6s3.4,3.8-2.3,3.1c-5.7-0.7-10-3.7-10-3.7
				C75.1,259.8,74.8,257.6,74.5,254.4c-0.9-7.1-1.8-19.3-1.4-19.5c3.2-2,13.4-1.8,13.4-1.8s2.4,15.8-3,23.1c0,0.1-0.1,0.1-0.1,0.2"
				/>
		</g>
	</g>
	<g>
		<g>
			<g id="XMLID_6_">
				<g>
					<path class="st3" d="M96.3,188.7c0.9,3.8,1.3,9-1.4,13.7c-0.9-2.2-1.9-4.5-2.8-6.7C95.8,194.9,96.3,189,96.3,188.7z"/>
					<path class="st3" d="M96.3,188.6L96.3,188.6C96.3,188.7,96.3,188.7,96.3,188.6C96.3,188.7,96.3,188.6,96.3,188.6z"/>
					<path class="st4" d="M87.1,117.5c0.2-1.3,0.4-2.6,0.5-3.9c0.2-1.3,0.3-2.6,0.1-3.8c-0.5-2.5-2.8-4.5-5.3-5.1
						c-0.4-0.1-0.9-0.2-1.3-0.2c-0.1-0.1-0.1-0.1-0.1-0.1c0,0,0.1,0.1,0.1,0.1c-2-0.2-4.1,0.4-5.6,1.8c-2.5,2.2-2.9,5.8-2.8,9.1
						c0,1.8,0.4,3.9,2,4.7c0.5,0.3,1.2,0.4,1.8,0.4c1.4,0,2.8-0.4,4.2-0.8c1.9-0.6,3.7-1.2,5.6-1.7c0.2-0.1,0.4-0.1,0.6-0.2
						C87,117.5,87.1,117.5,87.1,117.5z M95.7,100.5c2.6,14.6-4.3,27.6-4.3,27.6s-5.9,12.8-20,15.7c-4.5,0.9-9.8,0.8-16-1
						c-0.1,0-0.2-0.1-0.4-0.1c-26-7.9-21-42.2-21-42.2c0.4,5.7,4.4,7.5,10.3,7.3c-0.5,0.7-1.1,1.8-1.3,2.6c-0.7,2,0,4.3,1,6.2
						c1.2,2.2,3.2,4.3,5.7,4.5c1,0.1,2.1-0.1,3.1-0.4c1.4-0.3,2.8-0.7,4.2-1.2c0.4-0.1,0.7-0.3,1.1-0.5c0.6-0.3,1.1-0.6,1.5-1.2
						c0.3-0.5,0.4-1.1,0.4-1.7c0.1-1.9,0.1-3.9-0.4-5.8c-0.5-1.9-1.5-3.6-3-4.8C73.7,101.1,94.2,92,95.7,100.5z"/>
					<path class="st5" d="M87.7,113.5c-0.2,1.3-0.4,2.6-0.5,3.9c-0.1,0-0.1,0-0.2,0.1c-0.2,0.1-0.4,0.1-0.6,0.2c0,0,0.8-6.1-1-7.8
						c-1.2,3.5-4.5,1.8-5,0.7c-0.6-1.1-2.3-4.8,2-5c-0.6-0.8-0.9-1.1-1.1-1.3c0.4,0,0.9,0.1,1.3,0.2c2.5,0.6,4.8,2.6,5.3,5.1
						C88,111,87.8,112.3,87.7,113.5z"/>
					<path class="st6" d="M85.3,110c1.8,1.7,1,7.8,1,7.8c-1.9,0.6-3.7,1.2-5.6,1.7c-1.4,0.4-2.8,0.9-4.2,0.8c-0.6,0-1.2-0.1-1.8-0.4
						c-1.6-0.8-1.9-2.9-2-4.7c-0.1-3.3,0.4-6.9,2.8-9.1c1.5-1.4,3.6-1.9,5.6-1.8c0,0,0,0,0,0c0.1,0.1,0.4,0.5,1.1,1.3
						c-4.3,0.2-2.6,3.9-2,5C80.8,111.8,84,113.4,85.3,110z M76,116.9c0.6-0.6,0.8-1.4,0.6-2.2c0-0.1,0-0.2-0.1-0.3
						c-0.1-0.3-0.2-0.5-0.5-0.6c-0.6-0.3-1.2,0.6-1.3,1.1c-0.1,0.4,0,0.7,0,1.1c0,0.3,0.1,0.6,0.2,0.9c0.1,0.2,0.2,0.3,0.3,0.4
						C75.6,117.2,75.8,117.1,76,116.9z"/>
					<path class="st4" d="M81.2,104.4C81.2,104.4,81.2,104.4,81.2,104.4C81.1,104.4,81.1,104.3,81.2,104.4
						C81.1,104.3,81.1,104.3,81.2,104.4z"/>
					<path class="st5" d="M76.6,114.7c0.2,0.8-0.1,1.6-0.6,2.2c-0.2,0.2-0.4,0.3-0.6,0.3c-0.2,0-0.3-0.2-0.3-0.4
						c-0.1-0.3-0.2-0.6-0.2-0.9c-0.1-0.4-0.1-0.7,0-1.1c0.1-0.5,0.7-1.4,1.3-1.1c0.2,0.1,0.4,0.4,0.5,0.6
						C76.6,114.5,76.6,114.6,76.6,114.7z"/>
					<path class="st4" d="M55.5,142.8c6.2,1.8,11.5,1.9,16,1l0,0.2l2.2,7.7c0,0.2-0.1,0.4-0.3,0.5c-1.1,0.7-2.6,1-3.9,1.4
						c-4,1.1-8.8,1.6-12.6-0.7c-0.9-0.6-2.3-2.1-2.5-2.3C54.6,150.4,55.4,143.8,55.5,142.8L55.5,142.8
						C55.5,142.9,55.5,142.9,55.5,142.8L55.5,142.8L55.5,142.8z"/>
					<path class="st6" d="M57.2,110.5c0-1.8,2.7,4.8-0.1,8.9h0l0,0.1c-1.3,0.5-2.8,0.9-4.2,1.2c-1,0.2-2.1,0.5-3.1,0.4
						c-2.5-0.2-4.5-2.3-5.7-4.5c-1-1.9-1.7-4.2-1-6.2c0.3-0.8,0.9-1.9,1.3-2.6v0c2.4-0.1,5.2-0.5,8.1-1.2l0,0.1h0
						c0,0-1.1,4.7,2.8,5.6C55.5,112.3,57.2,112.3,57.2,110.5z M49.4,117.6c0.6-0.5,0.8-1.1,0.6-1.8c0-0.1-0.1-0.2-0.1-0.3
						c-0.1-0.2-0.2-0.4-0.5-0.5c-0.6-0.3-1.2,0.4-1.3,0.9c-0.1,0.3,0,0.6,0,0.9c0,0.2,0.1,0.5,0.2,0.7c0.1,0.1,0.2,0.2,0.3,0.3
						C49,117.9,49.3,117.8,49.4,117.6z"/>
					<path class="st5" d="M58.3,119c-0.4,0.2-0.7,0.3-1.1,0.5l0-0.1h0c2.8-4.1,0.1-10.8,0.1-8.9s-1.8,1.9-1.8,1.9
						c-4-0.8-2.8-5.6-2.8-5.6h0l0-0.1c1.4-0.3,2.8-0.6,4.2-1c1.5,1.2,2.5,2.9,3,4.8c0.5,1.9,0.5,3.8,0.4,5.8c0,0.6-0.1,1.2-0.4,1.7
						C59.4,118.4,58.9,118.7,58.3,119z"/>
					<path class="st5" d="M49.4,117.6c-0.2,0.1-0.4,0.3-0.6,0.2c-0.2,0-0.3-0.2-0.3-0.3c-0.1-0.2-0.2-0.5-0.2-0.7
						c-0.1-0.3-0.1-0.6,0-0.9c0.1-0.4,0.7-1.1,1.3-0.9c0.2,0.1,0.4,0.3,0.5,0.5c0,0.1,0.1,0.2,0.1,0.3
						C50.2,116.5,50,117.2,49.4,117.6z"/>
					<path class="st3" d="M35,199.7c-2.7,4.1-6.2-9.6-6.2-9.6l1.4-7.6c0,0,1-3.8,7.5-16.7c6.2-12.4,13.4-15.4,13.4-15.4s3-0.7,3.2,0
						l0,0c0,0,0,0,0,0c0.2,0.3,1.6,1.8,2.5,2.3c3.7,2.3,8.5,1.9,12.6,0.7c1.2-0.3,2.8-0.7,3.9-1.4c0.2-0.1,0.3-0.3,0.3-0.5l0,0.1
						c0,0,7.9-0.1,9.2,2.7c1.4,2.8,11.1,28.2,11.1,28.2s0,0,0,0l2.2,5.9c0,0,0,0,0,0c0,0.3-0.5,6.2-4.2,7c0.9,2.2,1.9,4.5,2.8,6.7
						c0,0.1-0.1,0.1-0.1,0.2c6.4,15.6,3.7,22.4,2.4,24.5c-8.3,13.9-38,5.6-60.5,0c-8.2-2-5.8-9.4-5.8-9.4S35.7,198.8,35,199.7z"/>
					<path class="st7" d="M26.2,181.1c-0.7-0.3-5.4-2.1-8.5-5.9c-2.3-2.8-3.1-5.8-3.4-7.2c-4.6-18.9,5.3-46.2,5.3-46.2
						c9.3-25.7,14.2-38.2,22.6-43.9c13.5-9,30.2-7.2,45.1-1.5c1.7,0.8,4.1,2.2,6.5,4.4c0,0,1.6,1.3,2.9,2.6c5,4.9,9.1,15.8,9.5,17
						c1,5.1,9.5,50.4,9.3,67.1c0,1.8-0.2,4.9-2.1,7.9c-5.4,8.3-19.2,7.4-19.2,7.4s-9.8-25.4-11.1-28.2c-1.4-2.8-9.2-2.7-9.2-2.7
						l0-0.1c0,0,0-0.1,0-0.2c0.1-1.1-0.9-3-1.1-3.8c-0.4-1.2-0.7-2.5-1.1-3.7l0-0.2c14.1-2.9,20-15.7,20-15.7s6.9-13.1,4.3-27.6
						c-1.5-8.6-22,0.6-38.9,5.1c-1.4,0.4-2.8,0.7-4.2,1c-2.9,0.6-5.7,1.1-8.1,1.2v0c-5.9,0.2-9.9-1.6-10.3-7.3c0,0-5,34.3,21,42.2
						c0.1,0,0.2,0.1,0.4,0.1v0l0,0c0,0,0,0,0,0l0,0l-1.1,7.5c-0.2-0.7-3.2,0-3.2,0s-7.2,2.9-13.4,15.4c-6.5,12.9-7.5,16.7-7.5,16.7
						C30.3,182.5,27.1,181.4,26.2,181.1z"/>
					<path class="st4" d="M28.4,192.5l0.4-2.4c0,0,3.5,13.7,6.2,9.6c-0.1,0.2-0.4,0.9-0.9,2.5C28,204.8,28.4,192.5,28.4,192.5z"/>
				</g>
				<g>
					<path class="st1" d="M28.8,190.1l-0.4,2.4c0,0-0.4,12.3,5.8,9.8c0.5-1.6,0.8-2.4,0.9-2.5c0.7-1-4,18-4,18s-2.4,7.4,5.8,9.4
						c22.5,5.6,52.2,13.9,60.5,0c1.2-2.1,4-8.9-2.4-24.5c0-0.1,0.1-0.1,0.1-0.2c2.7-4.8,2.4-9.9,1.4-13.7c0,0,0,0,0,0
						c-0.8-3.4-2.1-5.7-2.2-5.9"/>
					<path class="st1" d="M94.1,182.7c0,0,13.8,1,19.2-7.4c2-3,2.1-6.2,2.1-7.9c0.2-16.7-8.3-62-9.3-67.1c-0.4-1.2-4.5-12-9.5-17
						c-1.3-1.3-2.9-2.6-2.9-2.6c-2.4-2.2-4.8-3.6-6.5-4.4c-14.8-5.7-31.5-7.6-45.1,1.5c-8.5,5.6-13.3,18.2-22.6,43.9
						c0,0-9.9,27.3-5.3,46.2c0.3,1.4,1.1,4.4,3.4,7.2c3.2,3.8,7.8,5.7,8.5,5.9c0.9,0.4,4.1,1.5,4.1,1.5"/>
					<path class="st1" d="M54.3,150.5c-0.2-0.7-3.2,0-3.2,0s-7.2,2.9-13.4,15.4c-6.5,12.9-7.5,16.7-7.5,16.7l-1.4,7.6
						c0,0,3.5,13.7,6.2,9.6l-0.1,0.1l13.5-37.2"/>
					<path class="st1" d="M55.5,142.8L55.5,142.8C55.5,142.9,55.5,142.9,55.5,142.8L55.5,142.8c-0.1,0.9-0.9,7.5-1.1,7.7
						c0,0,0,0,0,0"/>
					<path class="st1" d="M92.1,195.7c3.7-0.8,4.2-6.7,4.2-7c0,0,0,0,0,0l0,0l-2.2-5.9c0,0,0,0,0,0s-9.8-25.4-11.1-28.2
						c-1.4-2.8-9.2-2.7-9.2-2.7l0-0.1l-2.2-7.7c0.4,1.2,0.7,2.5,1.1,3.7c0.2,0.7,1.2,2.7,1.1,3.8c0,0.1,0,0.1,0,0.2
						c0,0.2-0.1,0.4-0.3,0.5c-1.1,0.7-2.6,1-3.9,1.4c-4,1.1-8.8,1.6-12.6-0.7c-0.9-0.6-2.3-2.1-2.5-2.3c0,0,0,0,0,0l0,0l1.1-7.5"/>
					<path class="st1" d="M95.2,203.1c-0.1-0.2-0.2-0.5-0.3-0.7"/>
					<path class="st1" d="M94.9,202.4c-0.9-2.2-1.9-4.5-2.8-6.7"/>
					<path class="st1" d="M78.7,163.6c4.5,10.7,9,21.4,13.4,32.1"/>
					<path class="st1" d="M44.5,107.8c-5.9,0.2-9.9-1.6-10.3-7.3c0,0-5,34.3,21,42.2c0.1,0,0.2,0.1,0.4,0.1c6.2,1.8,11.5,1.9,16,1
						c14.1-2.9,20-15.7,20-15.7s6.9-13.1,4.3-27.6c-1.5-8.6-22,0.6-38.9,5.1c-1.4,0.4-2.8,0.7-4.2,1
						C49.7,107.3,46.9,107.7,44.5,107.8"/>
					<path class="st1" d="M87.1,117.7c0-0.1,0-0.1,0-0.2c0.2-1.3,0.4-2.6,0.5-3.9c0.2-1.3,0.3-2.6,0.1-3.8c-0.5-2.5-2.8-4.5-5.3-5.1
						c-0.4-0.1-0.9-0.2-1.3-0.2c0,0,0,0,0,0c-2-0.2-4.1,0.4-5.6,1.8c-2.5,2.2-2.9,5.8-2.8,9.1c0,1.8,0.4,3.9,2,4.7
						c0.5,0.3,1.2,0.4,1.8,0.4c1.4,0,2.8-0.4,4.2-0.8c1.9-0.6,3.7-1.2,5.6-1.7c0.2-0.1,0.4-0.1,0.6-0.2c0.1,0,0.1,0,0.2-0.1
						c1.5-0.5,3.1-1.2,3.5-2.7"/>
					<path class="st1" d="M81.1,104.3C81.1,104.3,81.1,104.4,81.1,104.3"/>
					<path class="st1" d="M86.3,117.7c0,0,0.8-6.1-1-7.8c-1.2,3.5-4.5,1.8-5,0.7c-0.6-1.1-2.3-4.8,2-5c-0.6-0.8-0.9-1.1-1.1-1.3
						c-0.1-0.1-0.1-0.1-0.1-0.1v0"/>
					<path class="st1" d="M76.6,114.7c0-0.1,0-0.2-0.1-0.3c-0.1-0.3-0.2-0.5-0.5-0.6c-0.6-0.3-1.2,0.6-1.3,1.1c-0.1,0.4,0,0.7,0,1.1
						c0,0.3,0.1,0.6,0.2,0.9c0.1,0.2,0.2,0.3,0.3,0.4c0.2,0.1,0.5-0.1,0.6-0.3C76.5,116.3,76.8,115.5,76.6,114.7z"/>
					<path class="st1" d="M44.5,107.8L44.5,107.8c-0.5,0.7-1.1,1.8-1.3,2.6c-0.7,2,0,4.3,1,6.2c1.2,2.2,3.2,4.3,5.7,4.5
						c1,0.1,2.1-0.1,3.1-0.4c1.4-0.3,2.8-0.7,4.2-1.2c0.4-0.1,0.7-0.3,1.1-0.5c0.6-0.3,1.1-0.6,1.5-1.2c0.3-0.5,0.4-1.1,0.4-1.7
						c0.1-1.9,0.1-3.9-0.4-5.8c-0.5-1.9-1.5-3.6-3-4.8c0,0,0,0,0,0"/>
					<path class="st1" d="M52.6,106.8c0,0-1.1,4.7,2.8,5.6c0,0,1.8,0,1.8-1.9s2.7,4.8-0.1,8.9"/>
					<path class="st1" d="M50.1,115.9c0-0.1-0.1-0.2-0.1-0.3c-0.1-0.2-0.2-0.4-0.5-0.5c-0.6-0.3-1.2,0.4-1.3,0.9
						c-0.1,0.3,0,0.6,0,0.9c0,0.2,0.1,0.5,0.2,0.7c0.1,0.1,0.2,0.2,0.3,0.3c0.2,0.1,0.5-0.1,0.6-0.2C50,117.2,50.2,116.5,50.1,115.9
						z"/>
				</g>
			</g>
		</g>
	</g>
	<path class="st1" d="M60.5,130.9c0,0,8.2,6.5,11-1.6"/>
	<g>
		<g id="XMLID_5_">
			<g>
				<path class="st8" d="M102,80.4c0.4,1,0,1.8-0.5,2.7c-0.8,1.4-2.1,2.3-3.6,2.6c-1.8,0.4-3.5-0.3-5.3-0.1
					c-1.3,0.2-2.6,0.3-3.9,0.3c-0.9-0.1-2.4-0.2-2.9-1.1c-0.1-0.2-0.1-0.4-0.1-0.6l-0.1,0c0.2-0.8,0.3-2.2-0.6-3
					c1.3-2.2,2.8-4.3,4.6-6.1c1.6-1.7,4.5-4,6.8-2c1.7,1.4,3.1,3.1,4.3,4.9C101.1,78.8,101.7,79.6,102,80.4z"/>
				<path d="M79.7,84.3c0.2-1.7,1.5-3.4,3.3-3.6c0.2,0,1.3-0.2,2,0.5c0.9,0.8,0.8,2.2,0.6,3c-0.1,0.3-0.1,0.5-0.1,0.5
					c-0.1,0.4-0.7,2.4-2.5,2.9c-0.1,0-0.6,0.1-1.1,0.1c-0.4,0-0.9-0.1-1.4-0.5C79.4,86.4,79.6,84.8,79.7,84.3
					C79.7,84.3,79.7,84.3,79.7,84.3z"/>
				<path class="st8" d="M79.7,84.4c-0.1,0.4-0.3,2.1,0.9,2.9c0.4,0.3,0.9,0.4,1.4,0.5l0,0.2c-3.1,5-13.5,7.4-14.8,5.7
					c-1.4-1.7-0.7-4.7,0.9-9.3C69.4,80.1,78.2,83.6,79.7,84.4C79.7,84.3,79.7,84.3,79.7,84.4z"/>
			</g>
			<g>
				<path class="st1" d="M85.6,84.2c-0.1,0.3-0.1,0.5-0.1,0.5c-0.1,0.4-0.7,2.4-2.5,2.9c-0.1,0-0.6,0.1-1.1,0.1
					c-0.4,0-0.9-0.1-1.4-0.5c-1.1-0.9-0.9-2.5-0.9-2.9c0,0,0-0.1,0-0.1c0.2-1.7,1.5-3.4,3.3-3.6c0.2,0,1.3-0.2,2,0.5
					C85.9,82,85.8,83.4,85.6,84.2z"/>
				<path class="st1" d="M79.9,84.4c0,0-0.1,0-0.2-0.1c-1.5-0.6-10.3-4.2-11.8,0.1C66.3,89,65.7,92,67,93.7
					c1.4,1.7,11.7-0.7,14.8-5.7"/>
				<path class="st1" d="M85,81.2c1.3-2.2,2.8-4.3,4.6-6.1c1.6-1.7,4.5-4,6.8-2c1.7,1.4,3.1,3.1,4.3,4.9c0.5,0.8,1.1,1.6,1.4,2.4
					c0.4,1,0,1.8-0.5,2.7c-0.8,1.4-2.1,2.3-3.6,2.6c-1.8,0.4-3.5-0.3-5.3-0.1c-1.3,0.2-2.6,0.3-3.9,0.3c-0.9-0.1-2.4-0.2-2.9-1.1
					c-0.1-0.2-0.1-0.4-0.1-0.6"/>
			</g>
		</g>
	</g>
	<g>
		<path class="st9" d="M64.2,180.1c0,0-2.7-10.7-9.3-5.8c-6.5,4.9,8.1,19,8.1,19"/>
		<path class="st9" d="M64.1,180.1c0,0,4.6-10,10.1-4.1c5.6,6-11.3,17.3-11.3,17.3"/>
	</g>
	<path class="st10" d="M87.5,228.7c5.1-1.7,9.4-6.9,7.8-11.8c-0.7-2.1-9.7-28.5-11.3-28.4c-1.1,0.1-3.6,7.5-1.4,14.7
		c0.9,3.1,3,6.5,3,11.7c0,1.3-0.1,2.7-0.6,4c-0.9,2.2-2.9,3.7-4.9,5.1c-2.4,1.6-5.8,2.6-7.9,4.4C75.5,231,83.9,230,87.5,228.7z"/>
	<g>
		<g id="XMLID_4_">
			<g>
				<path class="st11" d="M185.8,74.6c5.1-5.4,7.4-8.5,6.7-9.4c-1-1.2-8.1,2.5-21.4,11.1l0.1,0.3c0.4-0.1,0.7-0.2,1.1-0.2
					c1.3-0.3,2.4-0.6,2.9-0.7c0.9-0.2,1.6-0.4,2.3-0.5c-4.6,11-2.1,23.5,0.4,35.2c0.4,1.6,0.7,3.2,1,4.8c1.7,7.9,3.4,15.8,5.1,23.7
					c2.6,12,5.2,24,7.8,36c1.8,8.5,3.1,12.7,3.7,14.6c7.6,22.4,23.1,36.4,30.5,42.8c5.5,4.9,12.5,10.8,23.3,15.8
					c13.4,6.2,25.7,7.5,33.3,7.7c-6.6-4.6-13.2-9.3-19.8-13.9c-11-7.7-18.4-14.7-24.9-24.7c-7.2-11.1-9.3-21.3-10.8-28.8
					c0,0-5.2-25.7,1.3-54.2c0.4-1.6,1.5-6.4,2.1-12.9c0.7-7.1,0.1-8.6,0.4-14.5c0.6-16.4,6.3-22.9,2.2-28.7
					c-0.8-1.1-1.7-1.9-2.6-2.5c1.1,4.6,1,9.5-0.3,14.1c-4.5-10.1-12.3-18.7-22-24.2c0.3,0.6,0.5,1.3,0.2,2c-0.5,1.2-1.8,2-3,2.5
					C199.3,72.8,192.6,74.4,185.8,74.6z"/>
				<path class="st12" d="M205.5,69.9c1.2-0.6,2.5-1.3,3-2.5c0.3-0.6,0.1-1.4-0.2-2c-0.5-0.3-1-0.6-1.5-0.8c0.6-0.1,1.2,0.3,1.5,0.8
					c9.7,5.4,17.5,14,22,24.2c1.3-4.6,1.4-9.5,0.3-14.1c-1.1-5-3.5-9.8-7.1-13.6c9.9,7.9,18.6,17.3,25.8,27.7
					c-3.8-11.4-10.2-21.9-18.6-30.5c-4.5-4.6-10-8.9-16.4-9.9c-5.6-0.9-11.2,0.8-16.6,2.4c-6.8,2.1-13.8,4.3-19.6,8.3
					c-5.9,4.1-10.6,10.4-10.9,17.6c1.6-0.3,3-0.7,4.2-1l-0.1-0.3c13.3-8.6,20.4-12.3,21.4-11.1c0.6,0.8-1.6,3.9-6.7,9.4
					C192.6,74.4,199.3,72.8,205.5,69.9z"/>
			</g>
			<g>
				<path class="st13" d="M208.2,65.4c9.7,5.4,17.5,14,22,24.2c1.3-4.6,1.4-9.5,0.3-14.1c-1.1-5-3.5-9.8-7.1-13.6
					c9.9,7.9,18.6,17.3,25.8,27.7c-3.8-11.4-10.2-21.9-18.6-30.5c-4.5-4.6-10-8.9-16.4-9.9c-5.6-0.9-11.2,0.8-16.6,2.4
					c-6.8,2.1-13.8,4.3-19.6,8.3c-5.9,4.1-10.6,10.4-10.9,17.6c1.6-0.3,3-0.7,4.2-1c0.4-0.1,0.7-0.2,1.1-0.2
					c1.3-0.3,2.4-0.6,2.9-0.7c0.9-0.2,1.6-0.4,2.3-0.5c-4.6,11-2.1,23.5,0.4,35.2c0.4,1.6,0.7,3.2,1,4.8c1.7,7.9,3.4,15.8,5.1,23.7
					c2.6,12,5.2,24,7.8,36c1.8,8.5,3.1,12.7,3.7,14.6c7.6,22.4,23.1,36.4,30.5,42.8c5.5,4.9,12.5,10.8,23.3,15.8
					c13.4,6.2,25.7,7.5,33.3,7.7c-6.6-4.6-13.2-9.3-19.8-13.9c-11-7.7-18.4-14.7-24.9-24.7c-7.2-11.1-9.3-21.3-10.8-28.8
					c0,0-5.2-25.7,1.3-54.2c0.4-1.6,1.5-6.4,2.1-12.9c0.7-7.1,0.1-8.6,0.4-14.5c0.6-16.4,6.3-22.9,2.2-28.7
					c-0.8-1.1-1.7-1.9-2.6-2.5c-0.7-0.5-1.4-0.9-2-1.1"/>
				<path class="st13" d="M208.2,65.4c-0.3-0.6-0.9-0.9-1.5-0.8C207.3,64.9,207.7,65.1,208.2,65.4z"/>
				<path class="st13" d="M171.1,76.3c13.3-8.6,20.4-12.3,21.4-11.1c0.6,0.8-1.6,3.9-6.7,9.4c6.8-0.2,13.6-1.8,19.7-4.7
					c1.2-0.6,2.5-1.3,3-2.5c0.3-0.6,0.1-1.4-0.2-2"/>
			</g>
		</g>

			<ellipse transform="matrix(0.9999 -1.362132e-02 1.362132e-02 0.9999 -1.3178 2.8068)" class="st14" cx="205.4" cy="98.1" rx="6.3" ry="11.3"/>

			<ellipse transform="matrix(0.9999 -1.362132e-02 1.362132e-02 0.9999 -1.3549 2.5729)" class="st14" cx="188.2" cy="100.8" rx="4.9" ry="9.7"/>

			<ellipse transform="matrix(0.9999 -1.362132e-02 1.362132e-02 0.9999 -1.3698 2.8024)" class="st15" cx="205" cy="102" rx="4.2" ry="7.1"/>

			<ellipse transform="matrix(0.9999 -1.362132e-02 1.362132e-02 0.9999 -1.3947 2.5726)" class="st15" cx="188.2" cy="103.7" rx="3.2" ry="5.4"/>
		<path class="st16" d="M201.8,127.2c-2.8,1.5-6.2,0-8.1-1.6c-2.9-2.5-2.9-6.1-2.9-6.7c4.5-0.5,9-1.1,13.4-1.6
			C206.1,121.3,204.7,125.6,201.8,127.2z"/>
	</g>
</g>
</svg>
