<svg id="Layer_1" data-name="Layer 1" xmlns="http://www.w3.org/2000/svg" viewBox="0 0 102 62">
  <defs>
    <style>
      .cls-1 {
        fill: #f9c5ca;
        stroke: #231f20;
        stroke-miterlimit: 10;
      }

      .cls-2 {
        fill: #f4dce0;
      }
    </style>
  </defs>
  <title>play-button</title>
  <path class="cls-1" d="M110,80.5H70A30.56,30.56,0,0,1,39.5,50h0A30.56,30.56,0,0,1,70,19.5h40A30.56,30.56,0,0,1,140.5,50h0A30.56,30.56,0,0,1,110,80.5Z" transform="translate(-39 -19)"/>
  <path class="cls-2" d="M43.5,57.3c-2.1-3.9-.3-19.1,1.2-21.2,1.8-2.4,13.7-15.9,14.1-13.7.2,1-7,11.3-10,13.3-1.3.8-1.5,10.4-2.6,12.4a18.69,18.69,0,0,0-.4,4.8c.2,1.2,3.8,9,5,10.3,1.4,1.6,11.9,13.8,13,15.4C56.2,78.8,45.2,60.7,43.5,57.3Z" transform="translate(-39 -19)"/>
  <path class="cls-2" d="M133.6,66.1c-1.4,3.5-8.7,9.7-10.9,9.9-2.5.2-15.3,4.9-14,3.4.5-.6,6.2-8,9.2-7.1,1.3.4,4.8-4.5,6.7-4.8a2.67,2.67,0,0,0,1.4-.7,7.5,7.5,0,0,0,1.7-3.7c.2-1.8,8.4-20.3,8.7-21.9C140.6,45.9,134.8,63.1,133.6,66.1Z" transform="translate(-39 -19)"/>
  <g>
    <path d="M58.85,41.69a1.27,1.27,0,0,1,.86-.33,1,1,0,0,1,.41.07,17.68,17.68,0,0,1,2.74-1,11.33,11.33,0,0,1,2.88-.38,9.21,9.21,0,0,1,1.87.19,6.19,6.19,0,0,1,1.76.67A6.8,6.8,0,0,1,71,42.19a7.76,7.76,0,0,1,1.27,1.66,8.79,8.79,0,0,1,.8,1.94,7.52,7.52,0,0,1,.29,2.06,6.72,6.72,0,0,1-1.06,3.67,9.12,9.12,0,0,1-2.77,2.79,8.12,8.12,0,0,1-3.77,1.22l-.84.05-.81,0c-.53,0-1,0-1.54-.07s-1-.1-1.51-.17v2.95q0,1.64,0,2.95a1.63,1.63,0,0,1-.46,1.18,1.37,1.37,0,0,1-.94.39,1.33,1.33,0,0,1-.89-.36,1.73,1.73,0,0,1-.51-1.11V54.66a.55.55,0,0,1-.24-.07,2,2,0,0,1-.75-.65,1.39,1.39,0,0,1-.24-.75,1.21,1.21,0,0,1,.31-.81,1.62,1.62,0,0,1,.89-.5V42.7A1.9,1.9,0,0,1,58.85,41.69ZM68,43.42a5,5,0,0,0-2.33-.55,8.31,8.31,0,0,0-2.4.36,14.89,14.89,0,0,0-2.19.84V52.5a12.77,12.77,0,0,0,1.44.26,12.34,12.34,0,0,0,1.47.09,10.18,10.18,0,0,0,1.44-.1,13.36,13.36,0,0,0,2-.5,4.21,4.21,0,0,0,1.73-1.11,5.21,5.21,0,0,0,1-1.64,4.93,4.93,0,0,0,.34-1.78,5,5,0,0,0-.63-2.45A4.66,4.66,0,0,0,68,43.42Z" transform="translate(-39 -19)"/>
    <path d="M88.11,59a1.86,1.86,0,0,1,1,.62,1.29,1.29,0,0,1,.29.84,1.33,1.33,0,0,1-.36.82,1.74,1.74,0,0,1-1,.53q-2.64.07-5.24.09T77.56,62a1.49,1.49,0,0,1-1.47-1.47q0-4.52,0-9t0-9a1.74,1.74,0,0,1,.53-1,1.33,1.33,0,0,1,.82-.36,1.3,1.3,0,0,1,.84.29,1.84,1.84,0,0,1,.62,1q0,4.25,0,8.41t0,8.41q2.29-.07,4.59-.09T88.11,59Z" transform="translate(-39 -19)"/>
    <path d="M109,60.62a1.91,1.91,0,0,1-.34,1.06,1.22,1.22,0,0,1-.75.5A1.31,1.31,0,0,1,107,62a1.9,1.9,0,0,1-.75-.82,29.45,29.45,0,0,0-.58-3.17q-.38-1.56-.89-3.1L95.71,55l-.15,0-.15,0q-.86,2.91-1.54,6a1.62,1.62,0,0,1-.79,1,1.35,1.35,0,0,1-1,.1,1.31,1.31,0,0,1-.75-.62,1.72,1.72,0,0,1-.15-1.23,100.58,100.58,0,0,1,2.72-9.71,61.56,61.56,0,0,1,4-9.27,1.2,1.2,0,0,1,1-.82,1.22,1.22,0,0,1,.72-.05,1.24,1.24,0,0,1,.58.33s0,0,0,0,0,0,0,0a16.39,16.39,0,0,1,3,3.87q1.2,2.16,2.19,4.38.38.79.7,1.58t.63,1.58l1.82,0a1.86,1.86,0,0,1,1,.62,1.3,1.3,0,0,1,.29.84,1.33,1.33,0,0,1-.36.82,1.75,1.75,0,0,1-1,.53h-.72q.45,1.4.77,2.83A27.26,27.26,0,0,1,109,60.62ZM99.55,44.14q-1,2-1.76,4t-1.49,4.08l7.47-.07q-.45-1-.91-2t-.94-2q-.55-1-1.1-2A13.56,13.56,0,0,0,99.55,44.14Z" transform="translate(-39 -19)"/>
    <path d="M119.35,60.48a1.63,1.63,0,0,1-.46,1.18,1.36,1.36,0,0,1-.94.39,1.33,1.33,0,0,1-.89-.36,1.73,1.73,0,0,1-.51-1.11q0-2.09,0-4.16t0-4.2a37.31,37.31,0,0,1-3.89-4.4A17,17,0,0,1,110,42.6a.85.85,0,0,0,0-.15.7.7,0,0,1,0-.15,1.51,1.51,0,0,1,.39-1.11,1.25,1.25,0,0,1,.91-.39,1.6,1.6,0,0,1,1.34.79,15.33,15.33,0,0,0,2.16,4.4,29.22,29.22,0,0,0,3.15,3.72l3.31-3.92A24,24,0,0,0,124,41.54a1.78,1.78,0,0,1,.63-.69,1.41,1.41,0,0,1,.7-.21,1.33,1.33,0,0,1,.92.38,1.28,1.28,0,0,1,.41,1,2.17,2.17,0,0,1-.17.75,29.47,29.47,0,0,1-3.32,4.85q-1.92,2.28-3.77,4.54l-.14.14v4.09Q119.31,58.43,119.35,60.48Z" transform="translate(-39 -19)"/>
  </g>
</svg>
