<?xml version="1.0" encoding="utf-8"?>
<!-- Generator: Adobe Illustrator 21.1.0, SVG Export Plug-In . SVG Version: 6.00 Build 0)  -->
<svg version="1.1" id="Layer_1" xmlns="http://www.w3.org/2000/svg" xmlns:xlink="http://www.w3.org/1999/xlink" x="0px" y="0px"
	 viewBox="0 0 180 100" style="enable-background:new 0 0 180 100;" xml:space="preserve">
<style type="text/css">
	.st0{fill:#F9C5CA;stroke:#231F20;stroke-miterlimit:10;}
	.st1{fill:#F4DCE0;}
	.st2{font-family:'Chalkboard';}
	.st3{font-size:20.4033px;}
</style>
<path class="st0" d="M118.1,77.5H66.4C44.7,77.5,27,63.8,27,47l0,0c0-16.8,17.7-30.5,39.4-30.5h51.7c21.7,0,39.4,13.7,39.4,30.5l0,0
	C157.5,63.8,139.8,77.5,118.1,77.5z"/>
<path class="st1" d="M32.2,54.3c-2.7-3.9-0.4-19.1,1.6-21.2c2.3-2.4,17.7-15.9,18.2-13.7c0.3,1-9,11.3-12.9,13.3
	c-1.7,0.8-1.9,10.4-3.4,12.4c-0.4,0.5-0.6,4.1-0.5,4.8c0.3,1.2,4.9,9,6.5,10.3C43.4,61.8,57,74,58.4,75.6
	C48.6,75.8,34.4,57.7,32.2,54.3z"/>
<path class="st1" d="M148.6,63.1c-1.8,3.5-11.2,9.7-14.1,9.9c-3.2,0.2-19.8,4.9-18.1,3.4c0.6-0.6,8-8,11.9-7.1
	c1.7,0.4,6.2-4.5,8.7-4.8c0.6-0.1,1.3-0.3,1.8-0.7c0.9-0.8,1.9-2.2,2.2-3.7c0.3-1.8,10.9-20.3,11.2-21.9
	C157.6,42.9,150.1,60.1,148.6,63.1z"/>
<text transform="matrix(1 0 0 1 39.8574 52.2266)" class="st2 st3">Storyboard</text>
</svg>
