<?xml version="1.0" encoding="utf-8"?>
<!-- Generator: Adobe Illustrator 21.1.0, SVG Export Plug-In . SVG Version: 6.00 Build 0)  -->
<svg version="1.1" id="Layer_1" xmlns="http://www.w3.org/2000/svg" xmlns:xlink="http://www.w3.org/1999/xlink" x="0px" y="0px"
	 viewBox="0 0 180 80" style="enable-background:new 0 0 180 80;" xml:space="preserve">
<style type="text/css">
	.st0{stroke:#000000;stroke-miterlimit:10;}
	.st1{fill:#7BAEFF;}
	.st2{fill:#CCCCCC;}
	.st3{fill:#D8BB7C;}
	.st4{fill:none;stroke:#000000;stroke-miterlimit:10;}
	.st5{fill:none;stroke:#000000;stroke-width:0.25;stroke-miterlimit:10;}
	.st6{fill:#FFCCCC;}
	.st7{fill:#BB9966;}
</style>
<path class="st0" d="M86.4,46.8c-2.8,3.4-5.5,6.8-7.3,10.8c-1.9,3.9-2.8,8.4-1.9,12.7c-0.6-0.3-1.2,0.4-1.5,1
	c-0.6,1.2-1.2,2.7-0.3,3.7c0.7,0.7,1.8,0.7,2.7,0.7c1.2-1.8,0.7-4.4-1.1-5.6"/>
<path class="st0" d="M82.6,45.4c2.5,3.6,5,7.2,6.7,11.4c1.7,4.2,2.6,8.9,1.8,13.4c0.5-0.3,1.1,0.4,1.3,1c0.6,1.3,1.1,2.9,0.3,4
	C92.1,76,91.1,76,90.2,76c-1.1-1.9-0.6-4.7,1-6"/>
<g id="XMLID_93_">
	<g>
		<path class="st1" d="M67,39.2c4.6,0.9,20.2,3.3,35,0c0.5-0.1,0.9-0.2,1.4-0.3c1.7,11.4-3.4,24-3.4,24s-24,0-29.2,0
			c-5.1,0-5.1-24-5.1-24S66.2,39,67,39.2z"/>
		<path class="st2" d="M110.3,18.3C100.8,34.1,99.7,35.8,99.6,36c-0.4-0.6-0.9-1.3-1.4-2.1l8.7-17.3
			C106.9,16.6,115.4,2.9,110.3,18.3z"/>
		<path class="st3" d="M102.1,39.2c-14.8,3.3-30.4,0.8-35,0l13.2-16.6c0,0,6.9-12,12,0c2.1,4.8,4.1,8.5,5.9,11.3
			c0.5,0.8,1,1.5,1.4,2.1C100.7,37.6,101.5,38.6,102.1,39.2z"/>
	</g>
	<g>
		<path class="st4" d="M102.1,39.2c0.5-0.1,0.9-0.2,1.4-0.3c1.7,11.4-3.4,24-3.4,24s-24,0-29.2,0c-5.1,0-5.1-24-5.1-24
			s0.5,0.1,1.3,0.3C71.6,40,87.2,42.5,102.1,39.2z"/>
		<path class="st5" d="M66.6,39.8l0.5-0.6l13.2-16.6c0,0,6.9-12,12,0c2.1,4.8,4.1,8.5,5.9,11.3c0.5,0.8,1,1.5,1.4,2.1
			c1.1,1.6,2,2.6,2.5,3.2c0.3,0.4,0.5,0.5,0.5,0.5"/>
		<path class="st5" d="M98.2,33.9L98.2,33.9l8.7-17.3c0,0,8.6-13.7,3.4,1.7C100.8,34.1,99.7,35.8,99.6,36c0,0,0,0,0,0"/>
	</g>
</g>
<ellipse class="st0" cx="78.1" cy="46.9" rx="1.7" ry="2.2"/>
<ellipse class="st0" cx="91.7" cy="46.9" rx="1.7" ry="2.2"/>
<circle class="st6" cx="98.4" cy="52.5" r="3.4"/>
<circle class="st6" cx="72.5" cy="52.5" r="3.4"/>
<g>
	<path class="st4" d="M89.6,53.1c0,0.9-0.5,3-3.4,3"/>
	<path class="st4" d="M89.6,52.6c0,0,0,0.2,0,0.5"/>
	<path class="st4" d="M82.8,52.7c0,0-0.3,3.4,3.5,3.4"/>
</g>
<path class="st7" d="M79.9,25.6c-2.3,4-2.6,8.7-0.7,12.4c-0.6-1.1,3.2-6.9,3.9-8.1c1.4-2.5,3.5-4.7,4.8-7.2c0.9-1.8,1.8-3.8-0.8-3.8
	C84,18.7,81.1,23.5,79.9,25.6z"/>
</svg>
